<svg width="634" height="633" viewBox="0 0 634 633" fill="none" xmlns="http://www.w3.org/2000/svg">
<path d="M555.471 542.445C542.569 556.027 530.361 564.785 520.717 571.705C407.344 653.05 273.193 629.34 244.683 623.548C202.582 614.998 121.201 598.468 62.3632 529.276C-26.6525 424.596 -12.792 259.674 56.2548 150.809C68.8854 130.897 135.599 20.3727 271.195 2.64869C353.254 -8.07842 448.912 13.5566 518.183 71.5915C663.59 193.415 653.238 439.517 555.471 542.445Z" fill="url(#paint0_linear)"/>
<path d="M11.168 214.221C10.5486 213.936 10.1168 213.317 10.1145 212.602C10.1055 210.251 10.1462 207.859 10.2343 205.494C10.2705 204.522 11.1002 203.779 12.0859 203.833C14.4777 203.948 13.6638 206.286 13.6864 212.65C13.691 213.622 12.8929 214.399 11.905 214.386C11.645 214.384 11.3941 214.325 11.168 214.221Z" fill="#91B3FA"/>
<path d="M12.505 183.487C13.2601 179.031 14.2051 174.553 15.3128 170.176C15.5502 169.235 16.5201 168.677 17.4786 168.928C20.0852 169.627 18.2563 170.994 16.0317 184.125C15.869 185.081 14.9489 185.714 13.9745 185.538C12.9866 185.357 12.3445 184.43 12.505 183.487ZM22.0882 149.163C23.7544 144.942 25.6194 140.71 27.5704 136.729C28.6149 134.588 31.8002 136.254 30.7942 138.302C28.8523 142.272 27.0527 146.355 25.4228 150.487C25.0678 151.389 24.0324 151.821 23.1123 151.455C22.1809 151.086 21.7355 150.056 22.0882 149.163ZM38.5304 117.576C41.0217 113.814 43.6961 110.104 46.4859 106.55C47.9237 104.719 50.7586 106.91 49.3298 108.734C46.5989 112.218 43.9765 115.853 41.5349 119.538C40.2508 121.473 37.2508 119.506 38.5304 117.576ZM61.2619 92.5587C60.5588 91.8647 60.5521 90.7479 61.2461 90.0697C64.4767 86.9024 67.879 83.8233 71.3605 80.9183C73.151 79.424 75.4886 82.1278 73.7004 83.6221C70.289 86.4706 66.9544 89.4864 63.7894 92.5881C63.0954 93.2663 61.9627 93.255 61.2619 92.5587ZM88.7748 70.25C88.2278 69.4316 88.4516 68.3419 89.2745 67.8174C93.1064 65.3759 97.0852 63.0541 101.098 60.9177C103.164 59.8235 104.905 62.923 102.839 64.024C98.9051 66.1174 95.0077 68.3917 91.2526 70.7835C90.432 71.3102 89.3219 71.0706 88.7748 70.25ZM121.325 54.9585C120.918 54.7708 120.581 54.4363 120.4 53.9954C120.032 53.0866 120.475 52.0693 121.39 51.7211C125.661 50.1025 130.044 48.6307 134.426 47.3489C135.368 47.0731 136.37 47.6044 136.668 48.538C136.964 49.4717 136.442 50.4506 135.499 50.7264C131.209 51.9834 126.911 53.4257 122.726 55.0127C122.256 55.1868 121.752 55.1552 121.325 54.9585ZM155.839 45.7528C155.319 45.5132 154.921 45.0362 154.813 44.4416C154.639 43.4808 155.285 42.5765 156.255 42.4205C160.776 41.6948 165.388 41.1387 169.962 40.7634C170.943 40.682 171.82 41.4032 171.917 42.3731C172.017 43.3407 171.3 44.1929 170.317 44.2721C165.836 44.6383 161.319 45.1854 156.888 45.8953C156.52 45.9586 156.156 45.8998 155.839 45.7528ZM190.602 42.0272C190.629 41.0551 191.452 40.3045 192.438 40.3475C197.027 40.5509 201.675 40.9375 206.251 41.4959C208.606 41.7898 208.215 45.2758 205.871 44.991C201.388 44.4439 196.835 44.0641 192.338 43.8651C191.355 43.8222 190.575 43.0015 190.602 42.0272ZM302.25 88.234C292.138 79.3132 289.723 79.2748 291.346 77.1655C291.936 76.3969 293.056 76.259 293.847 76.8513C297.53 79.6252 301.149 82.5777 304.606 85.6274C306.382 87.1918 304.031 89.8029 302.25 88.234ZM226.265 46.8945C226.493 45.9518 227.456 45.3843 228.417 45.6262C232.884 46.7498 237.37 48.061 241.749 49.5237C244 50.2765 242.902 53.6088 240.654 52.856C236.361 51.4227 231.966 50.1386 227.59 49.0354C226.618 48.7935 226.039 47.8282 226.265 46.8945ZM273.249 67.458C261.564 60.7527 259.167 61.189 260.316 58.7813C261.044 57.2554 262.907 57.9765 262.692 57.9698C266.87 59.9592 271.014 62.1317 275.008 64.4218C275.867 64.9147 276.17 65.9953 275.684 66.8318C275.221 67.6321 274.165 67.9666 273.249 67.458Z" fill="#91B3FA"/>
<path d="M322.486 109.319C318.697 104.65 316.258 102.987 318.083 101.438C318.822 100.809 319.952 100.893 320.606 101.639C324.718 106.31 326.813 108.204 325.003 109.619C324.458 110.044 323.108 110.081 322.486 109.319Z" fill="#91B3FA"/>
<path d="M361.176 240.571C360.482 240.25 360.039 239.516 360.136 238.734C360.423 236.437 360.665 234.11 360.855 231.813C360.937 230.846 361.798 230.138 362.784 230.235C363.765 230.335 364.5 231.194 364.42 232.162C364.226 234.504 363.977 236.88 363.686 239.224C363.566 240.187 362.673 240.859 361.694 240.723C361.509 240.696 361.335 240.644 361.176 240.571Z" fill="#91B3FA"/>
<path d="M110.037 370.869C105.579 368.665 101.16 366.25 96.9026 363.691C96.0526 363.18 95.7722 362.095 96.2764 361.268C97.6961 358.937 98.5461 361.277 111.593 367.724C112.481 368.163 112.852 369.223 112.422 370.091C111.672 371.61 109.823 370.862 110.037 370.869ZM131.349 377.94C132.213 375.356 133.63 377.477 147.658 380.995C148.621 381.232 149.213 382.195 148.985 383.136C148.757 384.078 147.794 384.646 146.835 384.406C142.036 383.203 137.209 381.781 132.493 380.179C131.546 379.858 131.044 378.854 131.349 377.94ZM76.9676 349.806C73.0995 346.702 69.3105 343.397 65.7092 339.983C64.9926 339.303 64.9609 338.188 65.6391 337.492C67.5517 335.532 67.8546 337.994 79.1966 347.088C79.9675 347.708 80.0964 348.818 79.4815 349.568C78.8643 350.317 77.7407 350.423 76.9676 349.806ZM170.152 388.564C169.474 388.252 169.033 387.542 169.108 386.771C169.203 385.805 170.075 385.109 171.056 385.22C175.892 385.76 180.798 386.102 185.638 386.237C186.628 386.264 187.417 387.074 187.406 388.046C187.395 389.018 186.588 389.784 185.6 389.757C180.658 389.619 175.65 389.271 170.715 388.72C170.516 388.697 170.326 388.643 170.152 388.564ZM208.792 388.64C208.245 388.387 207.834 387.869 207.752 387.236C207.628 386.271 208.322 385.401 209.301 385.295C214.107 384.777 218.95 384.049 223.697 383.131C224.663 382.943 225.612 383.567 225.818 384.521C226.023 385.475 225.409 386.4 224.443 386.588C219.599 387.524 214.657 388.267 209.751 388.796C209.412 388.833 209.084 388.774 208.792 388.64ZM246.372 380.359C245.947 380.163 245.597 379.805 245.425 379.335C245.09 378.415 245.572 377.414 246.499 377.099C251.059 375.555 255.607 373.801 260.018 371.884C260.915 371.495 261.976 371.9 262.387 372.791C262.799 373.681 262.405 374.721 261.508 375.11C257.007 377.066 252.365 378.856 247.713 380.432C247.258 380.588 246.779 380.549 246.372 380.359ZM281.085 364.175C280.778 364.032 280.507 363.804 280.312 363.501C279.783 362.672 280.03 361.586 280.864 361.08C284.958 358.591 288.993 355.894 292.857 353.07C293.644 352.496 294.763 352.663 295.362 353.45C295.959 354.235 295.807 355.336 295.021 355.91C291.078 358.792 286.961 361.543 282.781 364.084C282.25 364.406 281.615 364.419 281.085 364.175ZM310.728 340.487C308.763 338.523 311.253 338.333 320.596 327.556C322.118 325.799 324.855 328.114 323.332 329.871C320.144 333.547 316.755 337.132 313.256 340.528C312.561 341.199 311.431 341.188 310.728 340.487ZM335.155 311.349C332.804 309.852 335.169 309.14 341.847 296.55C342.93 294.509 346.111 296.17 345.021 298.223C342.742 302.521 340.253 306.764 337.619 310.84C337.086 311.665 335.969 311.875 335.155 311.349ZM352.246 277.485C351.405 277.099 350.982 276.138 351.299 275.274C352.936 270.78 354.392 266.18 355.63 261.604C355.884 260.668 356.862 260.125 357.816 260.392C358.773 260.663 359.338 261.631 359.085 262.567C357.821 267.238 356.333 271.931 354.665 276.516C354.335 277.427 353.311 277.886 352.382 277.544C352.334 277.524 352.289 277.506 352.246 277.485Z" fill="#91B3FA"/>
<path d="M49.2213 322.07C45.3238 317.214 43.3231 315.233 45.2017 313.902C47.155 312.516 48.0209 314.939 52.011 319.915C52.6282 320.684 52.5039 321.792 51.7352 322.386C50.9643 322.981 49.8385 322.838 49.2213 322.07Z" fill="#91B3FA"/>
<path d="M71.8756 279.1L97.4646 277.755C104.55 287.392 113.226 296.015 123.311 303.172C122.57 327.701 120.779 329.369 123.332 330.425L151.876 342.233C152.71 342.576 153.666 342.366 154.254 341.708L171.058 322.922C183.243 324.977 195.458 324.997 207.261 323.173L224.46 342.219C225.064 342.886 226.023 343.11 226.85 342.778L255.159 331.384C255.986 331.051 256.499 330.233 256.436 329.349L254.625 304.11C264.285 297.297 272.885 288.896 279.977 279.084L305.579 280.8C306.477 280.861 307.304 280.352 307.641 279.539L319.133 251.616C319.469 250.8 319.239 249.855 318.558 249.263L299.195 232.38C301.069 220.407 300.879 208.371 298.82 196.71C317.064 180.092 319.451 180.246 318.38 177.75C306.068 150.402 307.035 148.216 304.232 148.363L278.643 149.708C271.558 140.07 262.881 131.448 252.796 124.291C253.538 99.7754 255.331 98.0934 252.776 97.0376C224.214 85.7928 223.658 83.7333 221.852 85.7544L205.048 104.541C192.862 102.486 180.648 102.463 168.845 104.29C151.867 86.2472 151.81 83.6587 149.258 84.6851C121.444 96.4544 119.477 95.3873 119.672 98.1137L121.482 123.352C111.822 130.166 103.223 138.567 96.1308 148.381C71.6563 147.244 69.5131 145.376 68.4641 147.926C57.5946 175.754 55.4537 176.375 57.5471 178.202L76.9102 195.087C75.036 207.058 75.2282 219.094 77.2855 230.757C59.1048 247.319 56.6496 247.21 57.7257 249.717C70.0399 277.061 69.0745 279.247 71.8756 279.1Z" fill="#91B3FA"/>
<path d="M158.326 209.23C160.559 193.12 175.713 182.031 192.106 184.513C208.496 187 220.016 202.12 217.785 218.23C215.551 234.34 200.398 245.428 184.005 242.946C167.608 240.466 156.092 225.335 158.326 209.23ZM184.367 240.335L184.383 240.342L184.367 240.335ZM191.382 189.736C178.078 187.721 165.501 196.606 163.641 210.035C161.805 223.267 171.266 235.692 184.731 237.726C198.194 239.763 210.639 230.657 212.475 217.427C214.308 204.175 204.82 191.766 191.382 189.736Z" fill="#BDD0FB"/>
<path d="M157.013 281.983C152.971 280.12 149.089 277.925 145.445 275.431C144.348 274.683 143.975 273.288 144.5 272.146C144.563 272.011 144.638 271.877 144.726 271.751C145.556 270.557 147.226 270.272 148.449 271.106C152.641 273.973 157.171 276.419 161.91 278.381C197.606 293.148 238.211 277.529 253.876 243.541C254.276 242.673 254.658 241.794 255.026 240.901C269.852 204.872 251.904 163.623 215.36 148.494C178.863 133.397 137.049 150.047 122.245 185.975C113.447 207.363 118.741 222.51 117.731 224.705C116.639 227.077 113.053 226.536 112.637 223.95C110.368 209.818 112.151 194.877 118.509 181.08C145.942 121.553 233.244 123.988 259.412 184.95C267.465 203.712 267.675 224.312 260.002 242.96C259.607 243.926 259.191 244.88 258.757 245.823C250.803 263.085 236.715 276.46 218.789 283.676C199.885 291.283 178.976 291.132 159.914 283.246C158.935 282.846 157.969 282.424 157.013 281.983Z" fill="#BDD0FB"/>
<path d="M379.829 170.11C384.154 175.208 389.324 179.655 395.216 183.205L395.503 197.508C395.534 199.095 396.891 198.482 412.661 203.874C414.122 204.345 413.959 202.981 422.554 192.021C429.411 192.584 436.202 191.996 442.693 190.385L453.018 200.302C454.166 201.403 454.688 200.008 469.652 192.672C470.1 192.444 470.35 191.956 470.28 191.461L468.264 177.288C473.362 172.963 477.809 167.793 481.358 161.9C495.022 161.339 496.279 162.284 496.758 160.796C501.693 144.521 502.851 144.078 501.616 143.151L490.175 134.561C490.738 127.704 490.15 120.91 488.538 114.422L498.456 104.098C499.557 102.954 498.162 102.427 490.826 87.4632C490.132 86.1045 489.338 87.1693 475.439 88.8512C471.115 83.7533 465.947 79.3065 460.051 75.7572L459.764 61.4536C459.732 59.8643 458.375 60.4792 442.605 55.0874C441.153 54.6195 441.35 55.9239 432.714 66.9426C425.857 66.3797 419.064 66.9675 412.576 68.5794L402.251 58.6616C401.889 58.3135 401.347 58.2343 400.899 58.4627L385.617 66.2915C385.171 66.5199 384.918 67.0082 384.988 67.5033L387.005 81.6757C381.907 86.0005 377.46 91.1685 373.911 97.0644C360.247 97.6251 358.99 96.6801 358.511 98.1677C353.578 114.436 352.416 114.883 353.652 115.813L365.094 124.403C364.531 131.26 365.119 138.053 366.731 144.542C357.464 154.6 355.899 154.821 356.614 156.216L364.443 171.499C365.143 172.866 366.003 171.786 379.829 170.11Z" fill="#91B3FA"/>
<path d="M409.753 128.325C410.395 118.444 418.909 110.963 428.792 111.603C438.672 112.242 446.155 120.759 445.515 130.64C444.875 140.499 436.334 148 426.475 147.363C416.616 146.725 409.115 138.186 409.753 128.325ZM426.647 144.7L426.663 144.706L426.647 144.7ZM415.083 128.669C414.636 135.591 419.903 141.587 426.821 142.034C437.935 142.753 444.461 129.58 437.085 121.184C429.742 112.826 415.807 117.485 415.083 128.669Z" fill="#BDD0FB"/>
<path d="M337.699 156.287C337.01 153.981 336.404 151.617 335.897 149.259C335.692 148.298 336.302 147.351 337.263 147.145C339.682 146.625 339.338 149.327 341.111 155.27C341.393 156.213 340.855 157.203 339.915 157.485C338.976 157.766 337.982 157.235 337.699 156.287Z" fill="#91B3FA"/>
<path d="M333.892 125.546C334.091 120.823 334.656 115.906 335.637 110.987C336.099 108.672 339.589 109.382 339.128 111.685C336.58 124.431 338.57 127.528 335.592 127.402C334.604 127.357 333.852 126.522 333.892 125.546ZM344.056 90.8098C343.172 90.3803 342.804 89.3132 343.233 88.4293C345.368 84.0457 347.868 79.7911 350.667 75.7851C352.016 73.8567 354.935 75.8936 353.585 77.8242C350.893 81.6765 348.487 85.7684 346.435 89.9869C345.68 91.54 343.839 90.8053 344.056 90.8098ZM367.059 61.1356C366.833 61.0316 366.625 60.8779 366.453 60.6767C365.814 59.9284 365.902 58.8071 366.648 58.1651C370.358 54.991 374.343 52.0837 378.496 49.5269C379.333 49.0114 380.431 49.2737 380.945 50.1079C381.46 50.9443 381.2 52.043 380.363 52.5562C376.369 55.0181 372.532 57.8146 368.963 60.8689C368.416 61.3368 367.67 61.416 367.059 61.1356ZM399.944 43.0409C399.498 42.8351 399.141 42.4485 398.985 41.9444C398.696 41.0039 399.225 40.0092 400.165 39.7221C404.831 38.2933 409.647 37.2218 414.482 36.5436C415.457 36.4079 416.356 37.0861 416.494 38.0605C416.63 39.0326 415.952 39.9346 414.977 40.0703C410.327 40.7236 405.695 41.7522 401.207 43.1268C400.773 43.2601 400.326 43.2172 399.944 43.0409ZM436.3 37.805C436.411 36.8284 437.293 36.1253 438.27 36.2361C443.135 36.7877 447.979 37.7214 452.67 39.0145C454.936 39.6272 454.002 43.0725 451.723 42.4463C447.211 41.2029 442.549 40.3031 437.867 39.7741C436.868 39.6566 436.192 38.7613 436.3 37.805Z" fill="#91B3FA"/>
<path d="M478.804 55.0729C473.425 51.3676 471.056 50.9855 472.263 48.9056C472.756 48.0556 473.828 47.7504 474.696 48.2591C476.771 49.4618 478.833 50.7685 480.825 52.1407C481.634 52.6991 481.838 53.8069 481.279 54.6162C480.73 55.4142 479.633 55.6381 478.804 55.0729Z" fill="#91B3FA"/>
<path d="M517.201 117.955C516.37 111.453 515.076 109.452 517.43 108.964C518.393 108.763 519.336 109.382 519.535 110.345C520.023 112.694 520.425 115.102 520.733 117.502C520.857 118.477 520.168 119.37 519.193 119.494C518.221 119.621 517.326 118.931 517.201 117.955Z" fill="#91B3FA"/>
<path d="M396.946 216.299C397.875 213.491 399.98 216.382 412.665 218.5C414.982 218.883 414.408 222.4 412.079 222.014C407.336 221.222 402.625 220.056 398.076 218.55C397.158 218.247 396.634 217.244 396.946 216.299ZM433.536 221.363C433.456 220.384 434.184 219.522 435.166 219.443C448.092 218.381 450.31 215.67 451.009 218.555C451.239 219.511 450.651 220.472 449.695 220.702C445.034 221.828 440.243 222.599 435.455 222.99C434.474 223.072 433.617 222.344 433.536 221.363ZM469.162 211.666C467.774 209.046 471.287 209.548 481.621 201.834C483.509 200.428 485.641 203.279 483.751 204.687C479.901 207.561 475.802 210.158 471.57 212.403C470.702 212.865 469.623 212.537 469.162 211.666ZM498.115 188.738C495.807 186.866 499.25 185.955 505.732 174.812C506.914 172.777 509.995 174.563 508.811 176.603C506.398 180.749 503.645 184.741 500.62 188.476C499.998 189.24 498.877 189.355 498.115 188.738ZM514.519 154.088C518.041 141.616 516.28 138.571 519.233 138.932C520.209 139.05 520.903 139.938 520.786 140.915C520.202 145.694 519.248 150.453 517.946 155.058C517.679 156.003 516.696 156.555 515.749 156.288C514.804 156.017 514.252 155.035 514.519 154.088Z" fill="#91B3FA"/>
<path d="M376.885 208.411C374.859 207.104 372.859 205.705 370.944 204.249C370.162 203.654 370.008 202.537 370.602 201.753C372.101 199.781 373.589 202.049 378.813 205.415C379.639 205.949 379.878 207.05 379.345 207.877C378.804 208.716 377.694 208.935 376.885 208.411Z" fill="#91B3FA"/>
<path d="M405.915 167.511C404.448 166.672 404.152 165.015 404.848 163.81C405.587 162.533 407.233 162.101 408.497 162.836C410.866 164.206 413.405 165.334 416.043 166.186C416.62 166.256 430.189 171.671 445.616 163.794C476.21 148.118 472.595 102.956 439.84 92.3985C420.996 86.3217 400.826 95.4935 392.742 113.048C384.597 130.727 393.805 139.923 388.169 141.228C386.733 141.562 385.297 140.667 384.963 139.232C383.163 131.482 383.509 123.366 385.964 115.756C393.411 92.6495 418.297 79.8425 441.479 87.3164C466.423 95.3578 479.151 123.558 467.965 147.834C458.945 167.414 436.256 178.317 414.402 171.268C411.447 170.312 408.59 169.048 405.915 167.511Z" fill="#BDD0FB"/>
<path d="M398.613 231.358C398.545 230.524 397.693 229.803 396.251 229.222C397.82 228.356 398.686 227.432 398.613 226.52C398.392 223.769 389.681 222.227 379.157 223.077C368.634 223.925 360.283 226.844 360.504 229.593C360.572 230.427 361.424 231.148 362.867 231.729C361.298 232.595 360.432 233.52 360.504 234.431C360.572 235.265 361.424 235.986 362.867 236.567C361.298 237.433 360.432 238.358 360.504 239.266C360.572 240.101 361.424 240.822 362.867 241.403C361.298 242.269 360.432 243.193 360.504 244.104C360.602 245.321 362.363 246.3 365.204 246.942C365.168 247.841 365.189 248.825 365.277 249.914C365.688 254.983 371.39 258.957 378.929 258.957C386.469 258.957 392.995 253.538 393.07 248.454C393.088 247.208 393.036 246.112 392.923 245.138C396.531 243.933 398.729 242.461 398.613 241.034C398.545 240.2 397.693 239.479 396.251 238.9C397.82 238.037 398.686 237.11 398.613 236.199C398.545 235.364 397.693 234.643 396.251 234.065C397.82 233.194 398.686 232.267 398.613 231.358Z" fill="url(#paint1_linear)"/>
<path d="M374.288 248.033C371.164 248.033 368.304 247.802 365.942 247.35C365.804 247.323 365.716 247.192 365.741 247.054C365.768 246.916 365.899 246.828 366.037 246.853C369.733 247.561 374.673 247.716 379.94 247.291C384.251 246.943 388.284 246.249 391.601 245.279C391.734 245.241 391.874 245.318 391.915 245.451C391.954 245.585 391.877 245.725 391.743 245.765C388.393 246.742 384.326 247.445 379.981 247.796C378.025 247.956 376.113 248.033 374.288 248.033Z" fill="url(#paint2_linear)"/>
<path d="M374.342 243.193C370.282 243.193 366.653 242.811 364.094 242.083C363.961 242.044 363.881 241.904 363.92 241.771C363.958 241.637 364.098 241.558 364.232 241.597C367.878 242.634 373.752 242.957 379.942 242.458C386.064 241.965 391.774 240.722 395.217 239.135C395.344 239.076 395.495 239.132 395.552 239.259C395.611 239.386 395.554 239.535 395.427 239.594C391.935 241.205 386.161 242.465 379.982 242.962C378.054 243.118 376.153 243.193 374.342 243.193Z" fill="url(#paint3_linear)"/>
<path d="M374.29 238.363C369.907 238.363 366.07 237.915 363.486 237.063C363.353 237.02 363.281 236.875 363.326 236.744C363.369 236.611 363.511 236.538 363.645 236.584C367.239 237.768 373.33 238.157 379.94 237.626C386.062 237.133 391.773 235.89 395.216 234.303C395.342 234.244 395.494 234.3 395.55 234.427C395.609 234.554 395.553 234.703 395.426 234.761C391.933 236.373 386.159 237.633 379.981 238.13C378.023 238.286 376.11 238.363 374.29 238.363Z" fill="url(#paint4_linear)"/>
<path d="M374.325 233.524C370.848 233.524 367.685 233.244 365.225 232.697C365.09 232.667 365.004 232.531 365.033 232.396C365.062 232.26 365.198 232.174 365.334 232.204C369.032 233.024 374.356 233.239 379.943 232.787C386.01 232.299 391.691 231.069 395.139 229.5C395.266 229.441 395.415 229.498 395.474 229.624C395.532 229.751 395.476 229.9 395.349 229.959C391.852 231.55 386.108 232.796 379.983 233.291C378.048 233.447 376.142 233.524 374.325 233.524Z" fill="url(#paint5_linear)"/>
<path d="M353.444 206.947C352.166 202.421 349.994 198.189 347.071 194.504C340.806 186.61 330.585 170.552 329.328 148.639C327.5 116.763 355.768 100.804 381.565 102.972C407.362 105.138 432.815 124.347 430.03 154.001C428.316 172.247 418.102 186.088 410.5 194.034C405.671 199.082 402.228 205.263 400.362 211.993C398.081 220.231 392.651 230.499 379.742 231.126C363.038 231.937 356.102 216.368 353.444 206.947Z" fill="url(#paint6_linear)"/>
<path d="M384.009 224.771L393.036 166.065C393.221 164.853 393.82 164.037 394.37 164.245C394.919 164.453 395.213 165.606 395.027 166.818C395.023 166.85 395.016 166.89 395.009 166.922L384.728 225.083C384.651 225.52 384.429 225.798 384.232 225.701C384.04 225.606 383.943 225.194 384.009 224.771Z" fill="url(#paint7_linear)"/>
<path d="M374.638 225.236L365.611 166.53C365.423 165.318 364.826 164.502 364.277 164.71C363.727 164.918 363.431 166.071 363.619 167.283C363.623 167.314 363.63 167.355 363.637 167.387L373.919 225.548C373.996 225.985 374.217 226.263 374.414 226.165C374.606 226.073 374.703 225.659 374.638 225.236Z" fill="url(#paint8_linear)"/>
<path d="M392.97 161.023C392.742 160.654 392.211 160.516 391.786 160.715L386.76 163.064L385.015 158.093C384.922 157.833 384.71 157.604 384.405 157.478C383.826 157.24 383.134 157.453 382.86 157.955L382.851 157.971L378.719 165.508L374.882 154.781L374.876 154.763C374.781 154.5 374.584 154.265 374.295 154.107C373.653 153.757 372.803 153.924 372.398 154.48L366.619 162.436C366.384 162.761 366.466 163.197 366.823 163.439C367.205 163.697 367.754 163.636 368.053 163.306L373.142 157.632L377.722 167.836L377.726 167.843C377.801 168.006 377.939 168.148 378.131 168.239C378.561 168.44 379.096 168.302 379.329 167.929L383.749 160.835L385.413 164.423L385.426 164.454C385.438 164.479 385.451 164.506 385.467 164.531C385.695 164.9 386.227 165.038 386.652 164.839L392.618 162.051C393.04 161.85 393.199 161.391 392.97 161.023Z" fill="white"/>
<path d="M410.695 186.467C410.458 186.467 410.218 186.395 410.012 186.241C409.504 185.864 409.397 185.147 409.775 184.638C411.312 182.568 412.721 180.429 413.962 178.279C414.278 177.732 414.979 177.544 415.526 177.861C416.073 178.177 416.263 178.878 415.944 179.425C414.66 181.65 413.202 183.865 411.613 186.006C411.391 186.307 411.045 186.467 410.695 186.467Z" fill="white"/>
<path d="M418.122 173.725C417.97 173.725 417.814 173.693 417.665 173.63C417.084 173.377 416.817 172.703 417.07 172.122C426.608 150.157 418.382 131.721 418.298 131.535C418.033 130.961 418.287 130.281 418.861 130.016C419.437 129.754 420.118 130.005 420.38 130.579C420.742 131.366 429.113 150.139 419.171 173.033C418.985 173.467 418.565 173.725 418.122 173.725Z" fill="white"/>
<path d="M227.304 591.355C227.304 591.355 225.814 599.34 225.047 607.251C224.747 610.341 227.107 613.052 230.209 613.21C240.748 613.75 263.29 614.819 271.385 614.535C272.602 614.492 273.409 613.255 272.97 612.118C272.602 611.166 271.883 610.393 270.958 609.957L233.871 592.481L227.304 591.355Z" fill="url(#paint9_linear)"/>
<path d="M226.191 586.646L227.236 596.222C227.236 596.222 233.733 599.322 238.221 595.944L235.621 585.258L226.191 586.646Z" fill="url(#paint10_linear)"/>
<path d="M228.761 406.809C228.248 409.303 224.94 531.447 237.476 586.319C237.679 587.214 237.218 588.13 236.366 588.469C234.356 589.267 230.418 590.415 225.711 590.529C224.253 590.565 222.955 589.604 222.557 588.202C218.945 575.465 201.666 511.654 199.914 450.837C197.954 382.879 199.937 448.524 199.937 448.524L201.867 406.547L228.761 406.809Z" fill="url(#paint11_linear)"/>
<path d="M184.413 595.119C184.413 595.119 182.125 599.134 179.846 609.843C179.435 611.776 180.771 613.643 182.735 613.856C186.212 614.231 191.568 614.722 195.861 614.735C197.839 614.74 199.401 613.033 199.182 611.066C198.743 607.146 197.324 600.708 192.795 595.655L184.413 595.119Z" fill="url(#paint12_linear)"/>
<path d="M182.557 582.797L185.071 597.288C185.071 597.288 187.675 599.264 192.875 597.899L191.758 582.322L182.557 582.797Z" fill="url(#paint13_linear)"/>
<path d="M177.038 410.065C165.743 474.418 177.833 569.393 182.041 587.999C182.298 589.138 183.207 590.018 184.358 590.219C186.311 590.563 189.53 590.856 192.716 589.966C193.812 589.658 194.592 588.679 194.646 587.54C195.376 572.536 195.198 480.386 205.498 444.066C206.02 442.226 207.162 440.627 208.733 439.533L228.179 425.987L229.873 403.805L177.038 410.065Z" fill="url(#paint14_linear)"/>
<path d="M246.258 288.582C214.257 287.748 178.857 296.343 178.857 296.343C168.785 351.921 176.044 416.204 176.044 416.204C200.761 422.939 228.812 412.734 228.812 412.734C233.152 389.505 252.992 324.204 252.992 324.204C268.648 322.414 281.574 318.023 292.241 312.159C284.238 302.703 280.537 290.73 278.948 283.658C267.596 287.07 256.128 288.84 246.258 288.582Z" fill="url(#paint15_linear)"/>
<path d="M341.248 242.341C338.14 238.514 334.143 240.273 334.143 240.273C329.244 260.124 304.392 276.019 278.945 283.663C280.535 290.734 284.235 302.707 292.238 312.163C334.575 288.889 341.248 242.341 341.248 242.341Z" fill="url(#paint16_linear)"/>
<path d="M340.477 243.3C340.796 244.349 336.971 245.905 334.769 241.607C334.71 239.556 333.548 230.762 334.789 229.103C341.397 220.27 354.155 209.24 354.155 209.24C356.273 211.37 354.491 213.425 354.491 213.425L348.295 219.759C349.556 222.09 351.103 224.064 351.81 226.876C352.346 229.006 351.984 231.273 350.892 233.197C349.796 235.128 348.304 237.635 346.895 239.597C344.225 243.307 340.477 243.3 340.477 243.3Z" fill="url(#paint17_linear)"/>
<path d="M345.567 223.881L339.929 228.567L338.127 233.27L343.06 238.849C343.06 238.849 344.825 229.501 346.091 227.484C347.357 225.472 346.722 224.484 345.567 223.881Z" fill="url(#paint18_linear)"/>
<path d="M190.834 327.453L178.855 296.346C178.855 296.346 148.765 316.373 143.604 342.08C149.249 342.55 159.512 344.117 169.527 349.294C171.853 337.154 190.834 327.453 190.834 327.453Z" fill="url(#paint19_linear)"/>
<path d="M216.684 356.865C216.684 356.865 182.938 375.514 171.766 359.21C169.446 355.823 168.917 352.475 169.525 349.294C159.513 344.117 149.247 342.55 143.602 342.08C142.046 349.83 142.749 358.095 147.232 366.485C166.724 402.963 221.045 365.182 221.045 365.182L216.684 356.865Z" fill="url(#paint20_linear)"/>
<path d="M214.086 262.289L203.622 291.642C203.447 292.128 203.644 292.671 204.094 292.924C206.854 294.486 216.815 299.017 228.939 291.491C230.203 290.706 231.069 289.415 231.275 287.944L234.815 262.486L214.086 262.289Z" fill="url(#paint21_linear)"/>
<path d="M236.505 235.227C236.505 235.227 247.488 256.385 245.973 264.874C244.458 273.363 230.605 272.621 218.568 265.599L210.328 242.789L236.505 235.227Z" fill="url(#paint22_linear)"/>
<path d="M219.209 254.442C219.702 254.23 219.889 253.628 219.6 253.176C218.716 251.799 217.063 248.992 216.552 246.541C216.552 246.541 214.554 245.234 221.698 243.595C228.842 241.956 239.494 239.411 241.786 233.366C244.02 227.472 238.441 212.542 229.197 224.307C228.844 224.754 228.163 224.759 227.822 224.302C226.344 222.34 222.448 218.259 216.962 220.658C211.827 222.903 211.215 226.644 211.267 228.532C211.283 229.088 210.781 229.516 210.236 229.405C207.656 228.887 201.458 228.406 198.501 234.74C196.066 239.958 197.587 242.94 198.984 244.405C199.436 244.879 199.228 245.653 198.6 245.838C196.895 246.342 194.689 247.762 194.87 251.743C195.121 257.248 201.277 256.823 203.031 256.588C203.318 256.549 203.607 256.651 203.8 256.868C205.285 258.543 211.986 265.664 219.299 266.587C219.932 266.666 220.429 266.044 220.228 265.438L217.147 256.194C217.005 255.765 217.212 255.297 217.628 255.118L219.209 254.442Z" fill="url(#paint23_linear)"/>
<path d="M220.471 255.764C220.471 255.764 212.561 250.225 211.934 254.819C211.308 259.412 219.04 261.551 222.897 259.871L220.471 255.764Z" fill="url(#paint24_linear)"/>
<path d="M209.787 386.337L228.168 322.139C228.376 321.411 228.998 320.88 229.751 320.792C233.081 320.403 242.732 319.311 253.875 318.37C267.297 317.236 282.885 316.315 292.199 317.098C293.523 317.208 294.324 318.61 293.734 319.801C288.437 330.517 266.65 374.108 255.74 388.387C255.378 388.86 254.82 389.138 254.223 389.131L211.572 388.733C210.334 388.719 209.445 387.53 209.787 386.337Z" fill="url(#paint25_linear)"/>
<path d="M214.229 370.827C214.229 370.827 211.667 360.297 212.701 356.562C213.734 352.825 215.735 348.024 222.406 349.091C229.077 350.158 236.947 352.968 236.947 352.968C236.947 352.968 236.549 357.833 231.478 356.264L234.623 358.696C234.623 358.696 234.173 362.592 229.891 360.512L232.814 363.738C232.814 363.738 230.974 366.937 227.825 364.886C224.673 362.834 223.163 372.096 214.229 370.827Z" fill="url(#paint26_linear)"/>
<path d="M252.652 337.533C252.652 340.513 255.069 342.929 258.049 342.929C261.028 342.929 263.445 340.513 263.445 337.533C263.445 334.553 261.028 332.137 258.049 332.137C255.069 332.137 252.652 334.553 252.652 337.533Z" fill="#91B3FA"/>
<path d="M230.252 341.092L228.875 340.685L232.616 327.989C233.227 325.921 234.895 324.368 236.971 323.936C248.835 321.458 280.08 320.954 281.403 320.934L281.425 322.369C281.102 322.374 248.993 322.894 237.265 325.34C235.707 325.665 234.452 326.834 233.991 328.394L230.252 341.092Z" fill="#91B3FA"/>
<path d="M12.691 520.75C10.731 523.651 2.94282 589.302 1.7243 613.55C1.64291 615.189 2.95413 616.557 4.59541 616.557C6.01062 616.557 7.21558 615.526 7.43487 614.127L21.6797 522.839L12.691 520.75Z" fill="#7D97F4"/>
<path d="M75.3089 520.75C77.269 523.651 85.0571 589.302 86.2757 613.55C86.3593 615.189 85.0458 616.557 83.4046 616.557C81.9893 616.557 80.7844 615.526 80.5651 614.127L66.3203 522.839L75.3089 520.75Z" fill="#7D97F4"/>
<path d="M0.90755 515.628L0.900768 516.345C0.853293 521.494 5.29108 525.72 10.8479 525.815L76.6913 526.934C82.1668 527.026 86.7312 523.07 86.9979 517.999L87.0318 517.344C87.3099 512.056 82.8179 507.6 77.1073 507.498L11.2345 506.318C5.59854 506.216 0.955025 510.401 0.90755 515.628Z" fill="#7D97F4"/>
<path d="M139.612 611.165C127.909 611.165 122.729 610.162 120.412 609.246C120.862 611.168 122.573 612.685 124.737 612.685H166.144C167.539 612.685 168.418 611.351 168.086 610.141C163.368 610.521 153.344 611.165 139.612 611.165Z" fill="#91B3FA"/>
<path d="M168.087 610.142C168.019 609.898 167.922 609.658 167.748 609.437C164.594 605.41 158.258 599.085 149.638 599.207C137.011 599.385 132.608 600.753 122.796 599.284L120.481 606.957C120.246 607.739 120.241 608.521 120.411 609.244C122.726 610.16 127.905 611.164 139.611 611.164C153.343 611.166 163.367 610.522 168.087 610.142Z" fill="url(#paint27_linear)"/>
<path d="M125.641 591.016L122.799 600.68C122.799 600.68 129.093 603.547 134.629 601.245L135.717 592.874L125.641 591.016Z" fill="url(#paint28_linear)"/>
<path d="M211.463 605.08C202.339 612.411 197.675 614.875 195.299 615.615C196.847 616.824 199.128 616.928 200.815 615.574L233.094 589.639C234.181 588.766 234.034 587.179 233.021 586.449C229.58 589.702 222.167 596.48 211.463 605.08Z" fill="#91B3FA"/>
<path d="M233.023 586.452C232.82 586.305 232.591 586.181 232.32 586.117C227.351 584.969 218.469 584.031 211.827 589.524C202.094 597.57 199.517 601.391 190.951 606.396L193.929 613.8C194.231 614.555 194.715 615.163 195.301 615.62C197.677 614.881 202.341 612.416 211.465 605.085C222.167 596.481 229.58 589.703 233.023 586.452Z" fill="url(#paint29_linear)"/>
<path d="M64.8569 480.914C64.8569 480.914 134.935 486.636 149.308 493.402C163.682 500.169 137.577 595.019 137.577 595.019C137.577 595.019 133.664 596.902 124.956 594.196C124.956 594.196 133.886 524.202 127.241 509.024L51.3672 496.612L64.8569 480.914Z" fill="url(#paint30_linear)"/>
<path d="M183.984 593.07C184.635 593.663 190.947 606.393 190.947 606.393C190.947 606.393 197.974 604.874 199.407 600.424L193.084 588.936L183.984 593.07Z" fill="url(#paint31_linear)"/>
<path d="M22.6485 480.33C22.6485 480.33 20.3651 485.826 20.4578 493.128C20.5867 503.227 28.7049 511.422 38.7922 511.926L121.634 515.704C123.384 515.783 124.865 516.994 125.301 518.69C127.247 526.22 136.763 549.343 183.277 595.484C184.514 596.712 186.442 596.92 187.916 595.991L194.538 591.808C195.232 591.37 195.455 590.459 195.039 589.749L146.805 507.38C144.271 503.2 140.199 500.179 135.463 498.967L64.8561 480.918L22.6485 480.33Z" fill="url(#paint32_linear)"/>
<path d="M104.29 351.662C104.29 351.662 95.4168 367.354 86.3672 374.954L105.07 385.39C105.07 385.39 109.284 368.778 118.912 363.915L104.29 351.662Z" fill="url(#paint33_linear)"/>
<path d="M21.1465 480.915C21.1465 480.915 43.5118 486.365 64.8575 480.915C64.8575 480.915 94.7283 440.76 106.283 429.831C106.283 429.831 124.717 458.918 165.744 463.041L168.032 457.928C168.032 457.928 135.369 442.871 125.314 419.735C115.258 396.599 111.22 386.733 102.071 380.695C96.3741 376.935 92.9627 374.367 91.1993 372.965C90.234 372.197 88.9025 372.111 87.849 372.753C78.1414 378.669 32.4591 409.958 21.1465 480.915Z" fill="url(#paint34_linear)"/>
<path d="M105.07 429.266C104.639 429.266 104.214 429.072 103.931 428.706C96.8097 419.419 92.8421 409.182 92.6771 408.753C92.3945 408.013 92.763 407.184 93.5023 406.899C94.2438 406.614 95.0712 406.985 95.3561 407.724C95.3945 407.826 99.3485 418.012 106.208 426.96C106.689 427.589 106.571 428.489 105.943 428.972C105.683 429.169 105.376 429.266 105.07 429.266Z" fill="url(#paint35_linear)"/>
<path d="M163.279 455.257L167.898 454.028L181.919 450.781C183.608 450.39 185.38 450.688 186.847 451.613L198.904 459.198L165.61 459.141L163.279 455.257Z" fill="url(#paint36_linear)"/>
<path d="M118.382 328.135C118.382 328.135 127.007 342.472 128.504 350.396C130 358.32 132.403 363.273 123.383 366.097C114.365 368.92 105.982 365.346 100.724 357.949C100.724 357.949 92.5085 346.566 93.3291 341.353C94.1475 336.14 118.382 328.135 118.382 328.135Z" fill="url(#paint37_linear)"/>
<path d="M103.123 351.817L104.29 351.664C104.29 351.664 98.1835 342.435 102.178 340.148C106.173 337.86 122.459 332.242 125.287 325.828C128.014 319.645 123.935 312.662 119.018 311.204C118.706 311.111 118.378 311.296 118.265 311.599L117.976 312.377C117.779 312.911 117.031 312.931 116.805 312.411C116.588 311.916 115.88 311.895 115.659 312.386C114.788 314.308 112.175 317.588 104.344 320.127C93.2325 323.728 86.3102 329.33 87.1625 337.225C87.2167 337.724 86.7194 338.07 86.2604 337.867C85.3516 337.464 83.9749 337.401 82.3765 339.151C79.5958 342.191 81.7729 348.845 89.3689 353.551C89.7306 353.775 89.7939 354.284 89.4707 354.56C88.3335 355.532 86.7352 357.702 91.8738 359.635C97.13 361.613 99.9988 360.944 101.059 360.519C101.344 360.404 101.507 360.11 101.448 359.807L100.098 352.889C100.028 352.532 100.275 352.188 100.636 352.141L103.123 351.817Z" fill="url(#paint38_linear)"/>
<path d="M103.604 353.24C103.604 353.24 99.7991 343.858 95.8021 347.156C91.8052 350.454 99.4961 357.743 103.045 357.646L103.604 353.24Z" fill="url(#paint39_linear)"/>
<path d="M150.415 465.728C150.47 465.73 150.524 465.732 150.578 465.732L221.707 465.662C223.466 465.66 224.89 464.236 224.888 462.481C224.886 460.725 223.455 459.275 221.7 459.307L150.571 459.377C148.813 459.38 147.391 460.804 147.391 462.558C147.393 464.258 148.733 465.644 150.415 465.728Z" fill="url(#paint40_linear)"/>
<path d="M249.251 396.07C249.227 396.117 249.202 396.167 249.179 396.217L219.252 460.742C218.512 462.336 219.202 464.228 220.796 464.967C222.39 465.707 224.307 465.019 225.019 463.417L254.946 398.891C255.685 397.295 254.996 395.405 253.402 394.666C251.86 393.952 250.036 394.58 249.251 396.07Z" fill="url(#paint41_linear)"/>
<path d="M435.508 530.574H428V611.759H435.508V530.574Z" fill="#7D97F4"/>
<path d="M464.632 613.325H398.881C398.881 610.626 401.069 608.438 403.769 608.438H459.746C462.443 608.44 464.632 610.626 464.632 613.325Z" fill="#7D97F4"/>
<path d="M474.389 527.758C474.389 532.198 470.756 535.831 466.316 535.831H399.792C395.352 535.831 391.719 532.198 391.719 527.758V520.458C391.719 516.018 395.352 512.385 399.792 512.385H466.316C470.756 512.385 474.389 516.018 474.389 520.458V527.758Z" fill="#7D97F4"/>
<path d="M376.334 476.443C376.334 476.443 365.179 478.173 352.637 486.558C350.663 487.878 349.58 490.177 349.876 492.533C351.378 504.429 357.554 542.933 377.916 580.54C378.99 582.523 379.297 584.831 378.825 587.035L375.287 603.498L368.726 609.649H385.625L396.877 579.202L392.066 577.681C388.336 576.5 385.777 573.071 385.709 569.158L385.144 536.497C385.625 521.945 376.221 511.905 376.221 511.905L403.207 510.592L376.334 476.443Z" fill="url(#paint42_linear)"/>
<path d="M362.127 612.62C360.588 614.634 378.692 617.293 387.836 612.887C387.836 612.887 400.514 590.829 400.514 579.473C400.514 579.473 399.508 577.158 392.064 577.683C392.064 577.683 387.807 603.801 383.313 606.726C378.818 609.652 370.736 607.022 370.736 607.022C370.736 607.022 364.397 609.647 362.127 612.62Z" fill="url(#paint43_linear)"/>
<path d="M399.79 512.384C399.646 512.136 370.736 508.907 370.736 508.907C370.736 508.907 371.683 517.697 368.726 529.799C365.769 541.9 323.319 594.328 323.319 594.328L327.771 608.438C314.01 613.23 300.472 613.997 287.152 610.881L314.735 594.328C314.735 594.328 340.55 506.355 356.362 490.661L385.342 480.635L399.79 512.384Z" fill="url(#paint44_linear)"/>
<path d="M464.63 461.195C464.63 461.195 481.287 485.971 482.655 497.272C484.023 508.573 478.093 513.165 460.615 513.922C443.138 514.679 396.479 514.668 396.479 514.668L356.656 480.635C356.656 480.635 385.677 470.279 393.223 467.351C400.765 464.424 464.63 461.195 464.63 461.195Z" fill="url(#paint45_linear)"/>
<path d="M326.09 603.688C326.09 603.688 330.883 608.329 327.645 613.492C327.645 613.492 289.686 620.22 279.379 617.168C279.379 617.168 281.52 612.283 293.124 606.724L292.267 607.381C291.184 608.213 291.82 609.945 293.183 609.868C300.831 609.432 316.656 608.03 326.09 603.688Z" fill="url(#paint46_linear)"/>
<path d="M392.475 304.072C426.526 298.283 442.557 326.056 441.383 331.89C441.227 332.664 441.958 333.319 442.719 333.114C446.628 332.062 455.264 330.735 460.618 337.443C465.345 343.366 461.811 348.954 458.931 352.022C458.235 352.764 458.82 353.966 459.829 353.84C467.015 352.933 482.632 352.716 485.187 367.345C487.57 380.989 478.075 384.834 472.443 385.919C471.489 386.102 471.268 387.355 472.086 387.875C474.896 389.656 478.152 393.341 476.836 400.61C474.774 412.001 452.438 411.07 449.829 410.921C449.664 410.912 449.508 410.864 449.364 410.78L413.588 390.377C413.31 390.219 413.115 389.943 413.061 389.627L405.838 347.914C405.779 347.578 405.886 347.232 406.123 346.985L382.801 314.071C374.337 312.824 392.075 304.14 392.475 304.072Z" fill="url(#paint47_linear)"/>
<path d="M419.582 457.917C419.582 457.917 400.185 439.447 390.636 427.212C385.475 420.6 383.854 411.894 386.241 403.852C390.6 389.167 398.347 373.954 399.055 371.587C400.138 367.959 421.888 368.11 421.888 368.11C421.888 368.11 464.688 395.888 481.503 442.94L462.617 448.82C462.617 448.82 451.443 430.072 440.401 418.154C440.401 418.154 459.507 443.392 460.18 453.726L419.582 457.917Z" fill="url(#paint48_linear)"/>
<path d="M396.426 351.305C396.652 352.06 402.329 370.878 402.774 371.269C403.217 371.66 415.224 372.305 420.873 368.443L406.857 341.025L396.426 351.305Z" fill="url(#paint49_linear)"/>
<path d="M373.667 327.122C373.667 327.122 370.922 337.904 378.514 352.404C386.103 366.904 394.696 366.888 399.394 362.247C404.092 357.606 409.884 349.73 408.507 335.711C407.132 321.692 377.63 313.409 373.667 327.122Z" fill="url(#paint50_linear)"/>
<path d="M398.008 336.474C398.008 336.474 385.416 317.221 373.606 332.373L373.394 337.884C373.394 337.884 359.562 336.243 361.984 323.56C364.405 310.878 376.357 302.952 391.751 308.445C407.144 313.939 415.965 319.572 416.958 330.605C417.95 341.637 409.174 339.218 409.174 339.218C409.174 339.218 406.312 331.45 402.24 330.643C398.171 329.836 399.229 335.893 399.229 335.893L398.008 336.474Z" fill="url(#paint51_linear)"/>
<path d="M401.231 336.216C401.231 336.216 394.7 326.357 401.391 324.887C408.083 323.418 407.045 334.493 406.322 338.589L401.231 336.216Z" fill="url(#paint52_linear)"/>
<path d="M380.064 459.287L394.316 445.551L414.032 453.879C414.032 453.879 433.657 456.92 444.888 453.879C456.12 450.839 456.119 450.839 456.119 450.839L481.501 442.938L485.486 454.203C486.499 457.062 485.482 460.239 483.008 461.995C480.813 463.555 478.238 465.271 476.597 465.988C473.253 467.45 394.201 464.977 394.201 464.977L380.064 459.287Z" fill="url(#paint53_linear)"/>
<path d="M433.998 465.763C433.935 465.765 433.871 465.768 433.808 465.768L351.136 465.677C349.092 465.675 347.437 464.018 347.439 461.974C347.442 459.93 349.106 458.242 351.145 458.278L433.817 458.368C435.861 458.371 437.515 460.028 437.513 462.071C437.511 464.05 435.953 465.666 433.998 465.763Z" fill="url(#paint54_linear)"/>
<path d="M276.818 390.703H345.668C350.748 390.703 355.371 393.635 357.537 398.229L389.365 465.721H303.804C300.53 465.721 297.589 463.72 296.386 460.677L271.704 398.222C270.28 394.614 272.938 390.703 276.818 390.703Z" fill="url(#paint55_linear)"/>
<path d="M325.324 425.308C326.816 429.942 325.713 434.445 322.862 435.363C320.011 436.281 316.489 433.268 314.997 428.633C313.505 423.999 314.608 419.495 317.459 418.577C320.312 417.657 323.832 420.671 325.324 425.308Z" fill="#7D97F4"/>
<path d="M528.249 603.094C528.249 603.094 529.117 607.911 529.458 613.631C529.605 616.068 527.799 618.186 525.369 618.421C516.907 619.242 497.646 620.757 485.347 618.982C483.625 618.733 482.94 616.617 484.215 615.43C489.286 610.705 501.534 601.516 521.691 599.506L528.249 603.094Z" fill="url(#paint56_linear)"/>
<path d="M532.457 592.232L528.18 602.719C527.594 604.157 526.136 605.05 524.592 604.887C523.545 604.779 522.304 604.578 521.097 604.211C518.682 603.479 517.321 600.92 518.043 598.501L521.271 587.699L532.457 592.232Z" fill="url(#paint57_linear)"/>
<path d="M605.602 611.443C605.602 611.443 597.034 618.612 593.698 627.806C592.78 630.336 594.719 632.999 597.41 632.999H615.039C617.618 632.999 619.596 630.678 619.149 628.137C618.025 621.788 614.788 611.47 605.602 611.443Z" fill="url(#paint58_linear)"/>
<path d="M616.215 602.117C616.215 602.117 614.486 609.777 613.154 614.838C612.912 615.756 611.933 616.26 611.038 615.942C608.371 614.987 606.2 614.567 604.62 614.777C603.89 614.874 603.255 614.269 603.243 613.532L603.078 600.811L616.215 602.117Z" fill="url(#paint59_linear)"/>
<path d="M570.653 429.763L518.543 588.737C518.543 588.737 528.538 595.282 533.299 595.011L595.193 467.248C595.193 467.248 606.024 545.971 600.774 602.487L618.503 603.839C618.503 603.839 647.329 459.41 625.495 409.941L570.653 429.763Z" fill="url(#paint60_linear)"/>
<path d="M594.857 465.876C594.877 465.876 594.899 465.874 594.92 465.872C595.196 465.838 595.392 465.585 595.358 465.309L593.337 449.258C593.303 448.982 593.052 448.79 592.774 448.819C592.499 448.853 592.302 449.106 592.336 449.382L594.359 465.433C594.389 465.689 594.606 465.876 594.857 465.876Z" fill="url(#paint61_linear)"/>
<path d="M560.881 289.875C560.881 289.875 603.1 293.623 597.127 323.707C597.127 323.707 620.465 367.626 631.375 419.362C631.73 421.046 630.602 422.688 628.906 422.977L558.598 435.015C556.658 435.348 554.789 434.138 554.296 432.232L537.496 367.307L530.949 397.492L510.148 392.073L527.658 303.372C527.662 303.372 530.104 290.431 560.881 289.875Z" fill="url(#paint62_linear)"/>
<path d="M537.139 364.402C537.175 364.402 537.213 364.398 537.25 364.391C537.532 364.33 537.711 364.05 537.65 363.767L531.79 336.855C531.729 336.573 531.453 336.394 531.166 336.455C530.883 336.516 530.705 336.797 530.766 337.079L536.626 363.991C536.682 364.235 536.899 364.402 537.139 364.402Z" fill="#91B3FA"/>
<path d="M541.384 444.48C543.599 443.262 546.192 442.925 548.643 443.535L553.535 444.754C554.575 445.014 555.606 444.297 555.726 443.232L560.787 398.174C567.117 401.181 576.248 400.821 579.26 400.6L567.608 453.717H526.836L541.384 444.48Z" fill="url(#paint63_linear)"/>
<path d="M433.053 346.747L434.285 342.65C434.995 340.292 436.735 338.386 439.021 337.469L461.309 328.505C461.309 328.505 461.646 325.647 456.6 323.703C451.554 321.761 452.735 316.109 452.735 316.109C452.735 316.109 459.627 319.254 469.719 324.241C475.491 327.094 478.728 332.129 480.446 335.92L530.951 397.491L525.021 401.564C517.224 406.922 506.499 404.291 502.068 395.931L474.709 343.466C460.973 347.597 447.071 348.386 433.053 346.747Z" fill="url(#paint64_linear)"/>
<path d="M547.203 261.153L560.188 297.497C560.188 297.497 548.69 306.485 540.298 303.447L533.756 282.612C533.756 282.612 538.752 257.152 547.203 261.153Z" fill="url(#paint65_linear)"/>
<path d="M508.447 248.099C508.447 248.66 520.956 283.509 520.956 283.509L540.703 275.944L533.756 241.152C533.756 241.152 508.447 238.724 508.447 248.099Z" fill="url(#paint66_linear)"/>
<path d="M530.293 249.63L535.384 267.659C535.449 267.89 535.483 268.123 535.483 268.364C535.485 269.834 535.121 274.896 529.967 274.206C525.29 273.582 521.012 273.08 518.293 274.362C517.072 274.936 516.486 276.343 516.943 277.613C518.08 280.778 520.775 287.865 524.055 293.666C524.72 294.844 526.18 295.301 527.412 294.74C531.122 293.054 538.843 289.276 544.345 284.782C545.091 284.174 545.448 283.215 545.272 282.27C544.406 277.658 541.829 263.63 541.716 259.611C541.61 255.838 545.844 252.958 547.707 251.875C548.317 251.52 548.754 250.934 548.919 250.247C549.504 247.819 549.999 242.323 542.989 241.111C541.522 240.858 540.565 239.454 540.864 237.994C541.456 235.089 541.266 230.816 535.752 229.24C530.146 227.64 526.619 231.015 524.824 233.601C524.098 234.648 522.742 234.987 521.58 234.467C520.917 234.171 520.119 234.158 519.26 234.883C518.103 235.86 516.339 235.561 515.489 234.309C513.855 231.904 510.884 229.5 505.856 231.128C496.936 234.015 497.361 244.301 500.632 249.892C503.903 255.483 513.396 251.805 517.892 248.099C521.311 245.282 526.513 246.967 528.812 247.937C529.535 248.244 530.078 248.868 530.293 249.63Z" fill="url(#paint67_linear)"/>
<path d="M543.502 266.193C543.502 266.193 538.221 256.205 541.714 253.069C545.204 249.934 551.121 250.447 550.962 258.258C550.763 267.97 543.502 266.193 543.502 266.193Z" fill="url(#paint68_linear)"/>
<path d="M575.165 401.277C578.047 401.277 580.102 401.058 580.326 401.033L580.701 400.99L596.074 329.314C596.135 329.031 595.955 328.753 595.672 328.692C595.387 328.629 595.111 328.812 595.05 329.095L579.836 400.027C577.548 400.228 565.331 401.04 558.881 396.471L572.199 334.199L569.418 328.961C569.283 328.706 568.966 328.609 568.711 328.744C568.455 328.88 568.358 329.196 568.494 329.452L571.096 334.353L557.717 396.912L557.984 397.113C562.643 400.615 570.151 401.277 575.165 401.277Z" fill="#91B3FA"/>
<path d="M114.29 619.806C113.937 619.806 113.578 619.729 113.232 619.566C111.873 618.929 111.245 617.208 111.83 615.725L168.007 473.187C168.59 471.704 170.166 471.019 171.527 471.656C172.886 472.294 173.514 474.014 172.929 475.497L116.752 618.033C116.318 619.143 115.33 619.806 114.29 619.806Z" fill="url(#paint69_linear)"/>
<path d="M177.576 619.807C176.539 619.807 175.551 619.145 175.114 618.037L118.938 475.501C118.352 474.018 118.981 472.298 120.34 471.66C121.698 471.023 123.274 471.708 123.859 473.191L180.036 615.729C180.622 617.212 179.993 618.932 178.634 619.57C178.288 619.731 177.929 619.807 177.576 619.807Z" fill="url(#paint70_linear)"/>
<path d="M495.544 619.806C495.191 619.806 494.832 619.729 494.486 619.566C493.127 618.929 492.499 617.208 493.084 615.725L549.261 473.187C549.846 471.704 551.42 471.019 552.781 471.656C554.14 472.294 554.768 474.014 554.183 475.497L498.006 618.033C497.57 619.143 496.582 619.806 495.544 619.806Z" fill="url(#paint71_linear)"/>
<path d="M558.828 619.807C557.791 619.807 556.803 619.145 556.366 618.037L500.19 475.501C499.604 474.018 500.233 472.298 501.591 471.66C502.95 471.023 504.526 471.708 505.111 473.191L561.288 615.729C561.874 617.212 561.245 618.932 559.886 619.57C559.54 619.731 559.181 619.807 558.828 619.807Z" fill="url(#paint72_linear)"/>
<path d="M487.393 463.123H568.756V454.727H487.393C489.136 454.727 489.136 463.123 487.393 463.123Z" fill="#91B3FA"/>
<path d="M567.99 463.123C568.41 463.123 568.754 462.78 568.754 462.359V455.491C568.754 455.071 568.41 454.727 567.99 454.727H485.673C485.252 454.727 484.909 454.384 484.909 453.963V453.592C484.909 453.172 485.252 452.828 485.673 452.828H573.411C575.351 452.828 576.924 454.402 576.924 456.341V461.708C576.924 463.537 575.441 465.02 573.61 465.02H485.67C485.25 465.02 484.906 464.677 484.906 464.256V463.885C484.906 463.465 485.25 463.121 485.67 463.121H567.99V463.123Z" fill="url(#paint73_linear)"/>
<path d="M580.549 468.783C580.822 467.845 580.449 466.877 579.534 466.141C578.618 465.404 577.255 464.979 575.815 464.979H88.2957C86.4035 464.979 84.6402 465.618 83.6206 466.676C82.601 467.734 82.4631 469.064 83.2589 470.203L88.5422 477.788C89.7516 479.524 92.3741 480.636 95.2588 480.636H572.471C575.155 480.636 577.461 479.375 577.969 477.627L580.549 468.783Z" fill="url(#paint74_linear)"/>
<defs>
<linearGradient id="paint0_linear" x1="709.992" y1="817.542" x2="148.311" y2="119.969" gradientUnits="userSpaceOnUse">
<stop stop-color="#DAE3FE"/>
<stop offset="1" stop-color="#E9EFFD"/>
</linearGradient>
<linearGradient id="paint1_linear" x1="380.752" y1="227.445" x2="373.01" y2="278.536" gradientUnits="userSpaceOnUse">
<stop stop-color="#09005D"/>
<stop offset="1" stop-color="#1A0F91"/>
</linearGradient>
<linearGradient id="paint2_linear" x1="382.463" y1="206.261" x2="369.095" y2="353.695" gradientUnits="userSpaceOnUse">
<stop stop-color="#53D8FF"/>
<stop offset="1" stop-color="#3840F7"/>
</linearGradient>
<linearGradient id="paint3_linear" x1="382.852" y1="206.296" x2="369.484" y2="353.73" gradientUnits="userSpaceOnUse">
<stop stop-color="#53D8FF"/>
<stop offset="1" stop-color="#3840F7"/>
</linearGradient>
<linearGradient id="paint4_linear" x1="382.114" y1="206.231" x2="368.746" y2="353.664" gradientUnits="userSpaceOnUse">
<stop stop-color="#53D8FF"/>
<stop offset="1" stop-color="#3840F7"/>
</linearGradient>
<linearGradient id="paint5_linear" x1="382.512" y1="206.266" x2="369.143" y2="353.699" gradientUnits="userSpaceOnUse">
<stop stop-color="#53D8FF"/>
<stop offset="1" stop-color="#3840F7"/>
</linearGradient>
<linearGradient id="paint6_linear" x1="386.57" y1="101.42" x2="365.945" y2="241.208" gradientUnits="userSpaceOnUse">
<stop stop-color="#FF928E"/>
<stop offset="1" stop-color="#FE7062"/>
</linearGradient>
<linearGradient id="paint7_linear" x1="576.665" y1="-66.6353" x2="483.855" y2="62.8405" gradientUnits="userSpaceOnUse">
<stop stop-color="#E1473D"/>
<stop offset="1" stop-color="#E9605A"/>
</linearGradient>
<linearGradient id="paint8_linear" x1="563.778" y1="-75.873" x2="470.968" y2="53.6028" gradientUnits="userSpaceOnUse">
<stop stop-color="#E1473D"/>
<stop offset="1" stop-color="#E9605A"/>
</linearGradient>
<linearGradient id="paint9_linear" x1="270.527" y1="580.715" x2="132.712" y2="727.79" gradientUnits="userSpaceOnUse">
<stop stop-color="#09005D"/>
<stop offset="1" stop-color="#1A0F91"/>
</linearGradient>
<linearGradient id="paint10_linear" x1="226.148" y1="591.312" x2="238.264" y2="591.427" gradientUnits="userSpaceOnUse">
<stop stop-color="#A67C52"/>
<stop offset="1" stop-color="#42210B"/>
</linearGradient>
<linearGradient id="paint11_linear" x1="282.869" y1="413.015" x2="165.298" y2="569.238" gradientUnits="userSpaceOnUse">
<stop stop-color="#09005D"/>
<stop offset="1" stop-color="#1A0F91"/>
</linearGradient>
<linearGradient id="paint12_linear" x1="240.194" y1="552.287" x2="102.373" y2="699.368" gradientUnits="userSpaceOnUse">
<stop stop-color="#09005D"/>
<stop offset="1" stop-color="#1A0F91"/>
</linearGradient>
<linearGradient id="paint13_linear" x1="182.485" y1="590.276" x2="192.946" y2="590.375" gradientUnits="userSpaceOnUse">
<stop stop-color="#A67C52"/>
<stop offset="1" stop-color="#42210B"/>
</linearGradient>
<linearGradient id="paint14_linear" x1="262.325" y1="397.555" x2="144.756" y2="553.776" gradientUnits="userSpaceOnUse">
<stop stop-color="#09005D"/>
<stop offset="1" stop-color="#1A0F91"/>
</linearGradient>
<linearGradient id="paint15_linear" x1="-245.549" y1="-470.011" x2="-138.601" y2="-284.636" gradientUnits="userSpaceOnUse">
<stop stop-color="#FF928E"/>
<stop offset="1" stop-color="#FE7062"/>
</linearGradient>
<linearGradient id="paint16_linear" x1="279.023" y1="275.68" x2="340.927" y2="276.268" gradientUnits="userSpaceOnUse">
<stop offset="0.00534759" stop-color="#754C24"/>
<stop offset="1" stop-color="#603813"/>
</linearGradient>
<linearGradient id="paint17_linear" x1="327.236" y1="265.763" x2="284.8" y2="359.876" gradientUnits="userSpaceOnUse">
<stop offset="0.00534759" stop-color="#754C24"/>
<stop offset="1" stop-color="#603813"/>
</linearGradient>
<linearGradient id="paint18_linear" x1="341.026" y1="234.417" x2="358.611" y2="207.933" gradientUnits="userSpaceOnUse">
<stop stop-color="#744B23"/>
<stop offset="0.00534759" stop-color="#754C24"/>
<stop offset="0.3048" stop-color="#603813"/>
</linearGradient>
<linearGradient id="paint19_linear" x1="-281.971" y1="-449.002" x2="-175.024" y2="-263.627" gradientUnits="userSpaceOnUse">
<stop stop-color="#FF928E"/>
<stop offset="1" stop-color="#FE7062"/>
</linearGradient>
<linearGradient id="paint20_linear" x1="142.732" y1="362.07" x2="221.069" y2="362.814" gradientUnits="userSpaceOnUse">
<stop offset="0.00534759" stop-color="#754C24"/>
<stop offset="1" stop-color="#603813"/>
</linearGradient>
<linearGradient id="paint21_linear" x1="203.682" y1="278.895" x2="234.655" y2="279.189" gradientUnits="userSpaceOnUse">
<stop offset="0.00534759" stop-color="#754C24"/>
<stop offset="1" stop-color="#603813"/>
</linearGradient>
<linearGradient id="paint22_linear" x1="242.211" y1="259.556" x2="208.354" y2="238.462" gradientUnits="userSpaceOnUse">
<stop offset="0.00534759" stop-color="#754C24"/>
<stop offset="1" stop-color="#603813"/>
</linearGradient>
<linearGradient id="paint23_linear" x1="190.535" y1="216.396" x2="234.198" y2="251.561" gradientUnits="userSpaceOnUse">
<stop stop-color="#09005D"/>
<stop offset="1" stop-color="#1A0F91"/>
</linearGradient>
<linearGradient id="paint24_linear" x1="233.191" y1="267.217" x2="202.73" y2="248.239" gradientUnits="userSpaceOnUse">
<stop offset="0.00534759" stop-color="#754C24"/>
<stop offset="1" stop-color="#603813"/>
</linearGradient>
<linearGradient id="paint25_linear" x1="242.074" y1="312.293" x2="285.301" y2="492.403" gradientUnits="userSpaceOnUse">
<stop stop-color="#09005D"/>
<stop offset="1" stop-color="#1A0F91"/>
</linearGradient>
<linearGradient id="paint26_linear" x1="212.455" y1="359.943" x2="236.946" y2="359.943" gradientUnits="userSpaceOnUse">
<stop offset="0.00534759" stop-color="#754C24"/>
<stop offset="1" stop-color="#603813"/>
</linearGradient>
<linearGradient id="paint27_linear" x1="138.883" y1="479.191" x2="143.976" y2="603.962" gradientUnits="userSpaceOnUse">
<stop stop-color="#4F52FF"/>
<stop offset="1" stop-color="#4042E2"/>
</linearGradient>
<linearGradient id="paint28_linear" x1="122.798" y1="596.578" x2="135.716" y2="596.578" gradientUnits="userSpaceOnUse">
<stop stop-color="#A67C52"/>
<stop offset="1" stop-color="#42210B"/>
</linearGradient>
<linearGradient id="paint29_linear" x1="207.087" y1="476.407" x2="212.18" y2="601.178" gradientUnits="userSpaceOnUse">
<stop stop-color="#4F52FF"/>
<stop offset="1" stop-color="#4042E2"/>
</linearGradient>
<linearGradient id="paint30_linear" x1="51.3659" y1="538.286" x2="153.63" y2="538.286" gradientUnits="userSpaceOnUse">
<stop stop-color="#09005D"/>
<stop offset="1" stop-color="#1A0F91"/>
</linearGradient>
<linearGradient id="paint31_linear" x1="183.985" y1="597.665" x2="199.408" y2="597.665" gradientUnits="userSpaceOnUse">
<stop stop-color="#A67C52"/>
<stop offset="1" stop-color="#42210B"/>
</linearGradient>
<linearGradient id="paint32_linear" x1="144.256" y1="495.681" x2="31.9878" y2="622.971" gradientUnits="userSpaceOnUse">
<stop stop-color="#09005D"/>
<stop offset="1" stop-color="#1A0F91"/>
</linearGradient>
<linearGradient id="paint33_linear" x1="98.3175" y1="380.334" x2="105.921" y2="361.159" gradientUnits="userSpaceOnUse">
<stop stop-color="#A67C52"/>
<stop offset="1" stop-color="#42210B"/>
</linearGradient>
<linearGradient id="paint34_linear" x1="303.703" y1="137.557" x2="70.4195" y2="493.036" gradientUnits="userSpaceOnUse">
<stop stop-color="#4F52FF"/>
<stop offset="1" stop-color="#4042E2"/>
</linearGradient>
<linearGradient id="paint35_linear" x1="103.25" y1="411.857" x2="251.059" y2="165.51" gradientUnits="userSpaceOnUse">
<stop stop-color="#09005D"/>
<stop offset="1" stop-color="#1A0F91"/>
</linearGradient>
<linearGradient id="paint36_linear" x1="163.278" y1="454.904" x2="198.903" y2="454.904" gradientUnits="userSpaceOnUse">
<stop stop-color="#A67C52"/>
<stop offset="1" stop-color="#42210B"/>
</linearGradient>
<linearGradient id="paint37_linear" x1="121.534" y1="341.339" x2="87.5" y2="375.284" gradientUnits="userSpaceOnUse">
<stop stop-color="#A67C52"/>
<stop offset="1" stop-color="#42210B"/>
</linearGradient>
<linearGradient id="paint38_linear" x1="91.93" y1="321.982" x2="132.016" y2="361.594" gradientUnits="userSpaceOnUse">
<stop stop-color="#09005D"/>
<stop offset="1" stop-color="#1A0F91"/>
</linearGradient>
<linearGradient id="paint39_linear" x1="116.03" y1="335.824" x2="81.9969" y2="369.769" gradientUnits="userSpaceOnUse">
<stop stop-color="#A67C52"/>
<stop offset="1" stop-color="#42210B"/>
</linearGradient>
<linearGradient id="paint40_linear" x1="-7470.98" y1="-7694.8" x2="-7345.29" y2="-7560.41" gradientUnits="userSpaceOnUse">
<stop stop-color="#09005D"/>
<stop offset="1" stop-color="#1A0F91"/>
</linearGradient>
<linearGradient id="paint41_linear" x1="10859.5" y1="-3073.16" x2="10684.7" y2="-3015.86" gradientUnits="userSpaceOnUse">
<stop stop-color="#09005D"/>
<stop offset="1" stop-color="#1A0F91"/>
</linearGradient>
<linearGradient id="paint42_linear" x1="293.8" y1="853.306" x2="389.017" y2="472.436" gradientUnits="userSpaceOnUse">
<stop offset="0.00534759" stop-color="#A67C52"/>
<stop offset="1" stop-color="#8C6239"/>
</linearGradient>
<linearGradient id="paint43_linear" x1="509.252" y1="386.699" x2="418.734" y2="539.091" gradientUnits="userSpaceOnUse">
<stop stop-color="#09005D"/>
<stop offset="1" stop-color="#1A0F91"/>
</linearGradient>
<linearGradient id="paint44_linear" x1="340.067" y1="612.415" x2="359.11" y2="328.349" gradientUnits="userSpaceOnUse">
<stop offset="0.00534759" stop-color="#A67C52"/>
<stop offset="1" stop-color="#8C6239"/>
</linearGradient>
<linearGradient id="paint45_linear" x1="356.654" y1="487.933" x2="482.843" y2="487.933" gradientUnits="userSpaceOnUse">
<stop stop-color="#09005D"/>
<stop offset="1" stop-color="#1A0F91"/>
</linearGradient>
<linearGradient id="paint46_linear" x1="457.549" y1="355.988" x2="367.043" y2="508.36" gradientUnits="userSpaceOnUse">
<stop stop-color="#09005D"/>
<stop offset="1" stop-color="#1A0F91"/>
</linearGradient>
<linearGradient id="paint47_linear" x1="445.541" y1="277.168" x2="426.96" y2="374.784" gradientUnits="userSpaceOnUse">
<stop stop-color="#09005D"/>
<stop offset="1" stop-color="#1A0F91"/>
</linearGradient>
<linearGradient id="paint48_linear" x1="357.333" y1="593.212" x2="428.372" y2="433.945" gradientUnits="userSpaceOnUse">
<stop stop-color="#4F52FF"/>
<stop offset="1" stop-color="#4042E2"/>
</linearGradient>
<linearGradient id="paint49_linear" x1="414.793" y1="399.297" x2="407.19" y2="350.508" gradientUnits="userSpaceOnUse">
<stop offset="0.00534759" stop-color="#A67C52"/>
<stop offset="1" stop-color="#8C6239"/>
</linearGradient>
<linearGradient id="paint50_linear" x1="373.453" y1="347.58" x2="430.459" y2="328.349" gradientUnits="userSpaceOnUse">
<stop offset="0.00534759" stop-color="#A67C52"/>
<stop offset="1" stop-color="#8C6239"/>
</linearGradient>
<linearGradient id="paint51_linear" x1="361.294" y1="296.697" x2="427.849" y2="370.483" gradientUnits="userSpaceOnUse">
<stop stop-color="#09005D"/>
<stop offset="1" stop-color="#1A0F91"/>
</linearGradient>
<linearGradient id="paint52_linear" x1="371.755" y1="342.55" x2="428.76" y2="323.319" gradientUnits="userSpaceOnUse">
<stop offset="0.00534759" stop-color="#A67C52"/>
<stop offset="1" stop-color="#8C6239"/>
</linearGradient>
<linearGradient id="paint53_linear" x1="446.015" y1="454.694" x2="551.826" y2="454.694" gradientUnits="userSpaceOnUse">
<stop offset="0.00534759" stop-color="#A67C52"/>
<stop offset="1" stop-color="#8C6239"/>
</linearGradient>
<linearGradient id="paint54_linear" x1="448.024" y1="443.797" x2="382.397" y2="465.321" gradientUnits="userSpaceOnUse">
<stop stop-color="#09005D"/>
<stop offset="1" stop-color="#1A0F91"/>
</linearGradient>
<linearGradient id="paint55_linear" x1="357.873" y1="400.767" x2="310.611" y2="450.72" gradientUnits="userSpaceOnUse">
<stop stop-color="#09005D"/>
<stop offset="1" stop-color="#1A0F91"/>
</linearGradient>
<linearGradient id="paint56_linear" x1="505.805" y1="690.337" x2="505.108" y2="764.312" gradientUnits="userSpaceOnUse">
<stop stop-color="#09005D"/>
<stop offset="1" stop-color="#1A0F91"/>
</linearGradient>
<linearGradient id="paint57_linear" x1="523.638" y1="607.724" x2="527.476" y2="577.716" gradientUnits="userSpaceOnUse">
<stop offset="0.00534759" stop-color="#603813"/>
<stop offset="1" stop-color="#42210B"/>
</linearGradient>
<linearGradient id="paint58_linear" x1="605.752" y1="691.278" x2="605.054" y2="765.253" gradientUnits="userSpaceOnUse">
<stop stop-color="#09005D"/>
<stop offset="1" stop-color="#1A0F91"/>
</linearGradient>
<linearGradient id="paint59_linear" x1="607.531" y1="618.011" x2="611.271" y2="588.768" gradientUnits="userSpaceOnUse">
<stop offset="0.00534759" stop-color="#603813"/>
<stop offset="1" stop-color="#42210B"/>
</linearGradient>
<linearGradient id="paint60_linear" x1="548.667" y1="381.921" x2="583.297" y2="550.49" gradientUnits="userSpaceOnUse">
<stop stop-color="#09005D"/>
<stop offset="1" stop-color="#1A0F91"/>
</linearGradient>
<linearGradient id="paint61_linear" x1="609.788" y1="489.229" x2="605.601" y2="480.854" gradientUnits="userSpaceOnUse">
<stop stop-color="#4F52FF"/>
<stop offset="1" stop-color="#4042E2"/>
</linearGradient>
<linearGradient id="paint62_linear" x1="540.884" y1="313.32" x2="612.765" y2="526.871" gradientUnits="userSpaceOnUse">
<stop stop-color="#4F52FF"/>
<stop offset="1" stop-color="#4042E2"/>
</linearGradient>
<linearGradient id="paint63_linear" x1="579.26" y1="425.947" x2="526.836" y2="425.947" gradientUnits="userSpaceOnUse">
<stop offset="0.00534759" stop-color="#603813"/>
<stop offset="1" stop-color="#42210B"/>
</linearGradient>
<linearGradient id="paint64_linear" x1="530.951" y1="360.233" x2="433.053" y2="360.233" gradientUnits="userSpaceOnUse">
<stop offset="0.00534759" stop-color="#603813"/>
<stop offset="1" stop-color="#42210B"/>
</linearGradient>
<linearGradient id="paint65_linear" x1="566.195" y1="305.325" x2="532.124" y2="270.37" gradientUnits="userSpaceOnUse">
<stop offset="0.00534759" stop-color="#603813"/>
<stop offset="1" stop-color="#42210B"/>
</linearGradient>
<linearGradient id="paint66_linear" x1="516.784" y1="248.345" x2="559.262" y2="304.539" gradientUnits="userSpaceOnUse">
<stop offset="0.00534759" stop-color="#603813"/>
<stop offset="1" stop-color="#42210B"/>
</linearGradient>
<linearGradient id="paint67_linear" x1="581.536" y1="88.5285" x2="536.72" y2="218.393" gradientUnits="userSpaceOnUse">
<stop stop-color="#E1473D"/>
<stop offset="1" stop-color="#E9605A"/>
</linearGradient>
<linearGradient id="paint68_linear" x1="578.997" y1="292.848" x2="544.927" y2="257.892" gradientUnits="userSpaceOnUse">
<stop stop-color="#FEBBBA"/>
<stop offset="1" stop-color="#FF928E"/>
</linearGradient>
<linearGradient id="paint69_linear" x1="32.3293" y1="938.06" x2="158.505" y2="488.112" gradientUnits="userSpaceOnUse">
<stop stop-color="#4F52FF"/>
<stop offset="1" stop-color="#4042E2"/>
</linearGradient>
<linearGradient id="paint70_linear" x1="38.9171" y1="939.91" x2="165.093" y2="489.96" gradientUnits="userSpaceOnUse">
<stop stop-color="#4F52FF"/>
<stop offset="1" stop-color="#4042E2"/>
</linearGradient>
<linearGradient id="paint71_linear" x1="385.787" y1="1037.18" x2="511.963" y2="587.23" gradientUnits="userSpaceOnUse">
<stop stop-color="#4F52FF"/>
<stop offset="1" stop-color="#4042E2"/>
</linearGradient>
<linearGradient id="paint72_linear" x1="392.375" y1="1039.03" x2="518.551" y2="589.078" gradientUnits="userSpaceOnUse">
<stop stop-color="#4F52FF"/>
<stop offset="1" stop-color="#4042E2"/>
</linearGradient>
<linearGradient id="paint73_linear" x1="563.791" y1="319.741" x2="543.518" y2="404.886" gradientUnits="userSpaceOnUse">
<stop stop-color="#09005D"/>
<stop offset="1" stop-color="#1A0F91"/>
</linearGradient>
<linearGradient id="paint74_linear" x1="187.764" y1="981.647" x2="313.94" y2="531.698" gradientUnits="userSpaceOnUse">
<stop stop-color="#4F52FF"/>
<stop offset="1" stop-color="#4042E2"/>
</linearGradient>
</defs>
</svg>
