<svg width="200" height="45" viewBox="0 0 200 45" fill="none" xmlns="http://www.w3.org/2000/svg">
<path d="M44.4006 44.3612C48.4895 44.3612 51.8042 41.0465 51.8042 36.9576C51.8042 32.8687 48.4895 29.554 44.4006 29.554C40.3117 29.554 36.9969 32.8687 36.9969 36.9576C36.9969 41.0465 40.3117 44.3612 44.4006 44.3612Z" fill="#458DFC"/>
<path d="M7.40362 44.3612C11.4925 44.3612 14.8072 41.0465 14.8072 36.9576C14.8072 32.8687 11.4925 29.554 7.40362 29.554C3.31471 29.554 0 32.8687 0 36.9576C0 41.0465 3.31471 44.3612 7.40362 44.3612Z" fill="#458DFC"/>
<path d="M25.8986 15.4462C29.9875 15.4462 33.3022 12.1314 33.3022 8.04254C33.3022 3.95363 29.9875 0.638916 25.8986 0.638916C21.8097 0.638916 18.495 3.95363 18.495 8.04254C18.495 12.1314 21.8097 15.4462 25.8986 15.4462Z" fill="#458DFC"/>
<path d="M25.8986 29.554C28.3761 29.554 30.3845 27.5455 30.3845 25.068C30.3845 22.5905 28.3761 20.582 25.8986 20.582C23.421 20.582 21.4126 22.5905 21.4126 25.068C21.4126 27.5455 23.421 29.554 25.8986 29.554Z" fill="#458DFC"/>
<path d="M7.40363 37.7488L25.8986 25.0751L44.4005 36.9576L25.8986 8.04248L7.40363 36.9576" stroke="#458DFC" stroke-width="2.35" stroke-miterlimit="10"/>
<path d="M74.8449 29.6602V35.3542C73.3373 35.9414 71.7292 36.2271 70.1116 36.1949C67.8146 36.2374 65.5397 35.7389 63.471 34.7396C61.5598 33.7901 59.9684 32.3019 58.8932 30.4585C57.7499 28.4507 57.1736 26.1701 57.2259 23.8602C57.1747 21.5505 57.7509 19.2701 58.8932 17.2619C59.9675 15.4334 61.5541 13.9598 63.4568 13.0232C65.5262 12.0264 67.801 11.5303 70.0975 11.575C71.7153 11.5393 73.3241 11.825 74.8307 12.4157V18.1097C73.379 17.4856 71.8118 17.175 70.2317 17.1984C69.3603 17.1949 68.4949 17.3431 67.6744 17.6364C66.8875 17.9119 66.1573 18.3284 65.5197 18.8656C64.862 19.4471 64.3471 20.1723 64.0149 20.9849C63.6311 21.8917 63.441 22.8686 63.4568 23.8531C63.4285 25.1375 63.764 26.4037 64.4247 27.5055C65.0177 28.494 65.8803 29.2929 66.9114 29.8085C67.9488 30.317 69.0906 30.5758 70.2458 30.5644C71.826 30.5972 73.3947 30.2887 74.8449 29.6602Z" fill="white"/>
<path d="M94.5973 35.7426H89.4614L89.087 33.9906C88.5373 34.6381 87.8557 35.1608 87.0877 35.5236C86.0565 36.0409 84.9136 36.2957 83.7603 36.2653C82.2296 36.3425 80.7231 35.8604 79.5216 34.9089C78.9969 34.4379 78.5849 33.8549 78.3159 33.2032C78.0469 32.5514 77.9278 31.8475 77.9674 31.1436C77.9377 30.2792 78.1444 29.4231 78.5652 28.6675C78.9859 27.9119 79.6048 27.2854 80.3552 26.8554C81.9471 25.8569 84.3467 25.3577 87.554 25.3577H88.7691V24.842C88.7691 23.3632 87.6175 22.6261 85.3145 22.6308C84.2999 22.6356 83.2879 22.7326 82.2909 22.9204C81.415 23.065 80.5542 23.2897 79.7194 23.5916V18.823C81.7354 18.157 83.8485 17.8323 85.9715 17.8622C88.8892 17.8622 91.065 18.4981 92.4921 19.7555C93.2173 20.4404 93.7832 21.2763 94.1494 22.2041C94.5157 23.132 94.6734 24.129 94.6114 25.1246L94.5973 35.7426ZM88.7337 28.678H87.554C85.0814 28.678 83.8451 29.3068 83.8451 30.5501C83.8355 30.7779 83.8776 31.0048 83.9681 31.214C84.0586 31.4232 84.1953 31.6092 84.3679 31.7582C84.7433 32.0652 85.2185 32.2236 85.7031 32.2032C86.4524 32.2249 87.1812 31.9567 87.7376 31.4544C88.2813 30.9654 88.6342 30.2996 88.7337 29.5752V28.678Z" fill="white"/>
<path d="M104.961 35.7426H99.0974V18.385H104.961V20.2783C105.173 20.0008 105.409 19.7431 105.667 19.5083C106.009 19.2208 106.373 18.9609 106.755 18.7312C107.241 18.448 107.764 18.234 108.31 18.0954C108.932 17.9298 109.573 17.8467 110.217 17.8481C111.1 17.8129 111.98 17.9604 112.803 18.2813C113.626 18.6023 114.374 19.0897 115 19.7131C116.229 20.9494 116.836 22.7156 116.836 25.0115V35.7426H110.959V26.1348C111.002 25.344 110.733 24.5677 110.21 23.9731C109.956 23.712 109.65 23.5074 109.311 23.3723C108.973 23.2372 108.61 23.1747 108.246 23.1889C107.457 23.1958 106.7 23.5012 106.127 24.0437C105.488 24.6262 105.074 25.4133 104.954 26.269L104.961 35.7426Z" fill="white"/>
<path d="M133.268 34.8172C132.729 35.2262 132.134 35.5568 131.502 35.7992C130.693 36.1199 129.829 36.2783 128.959 36.2654C127.369 36.2893 125.799 35.9101 124.395 35.1634C123.038 34.4187 121.923 33.3007 121.181 31.9419C120.37 30.4523 119.961 28.7772 119.994 27.0815C119.949 25.8602 120.152 24.6424 120.591 23.502C121.031 22.3616 121.698 21.3226 122.552 20.448C123.385 19.6 124.384 18.9328 125.486 18.4879C126.589 18.0431 127.771 17.8301 128.959 17.8623C130.415 17.8108 131.851 18.2105 133.071 19.0068V9.11646H138.934V35.7427H133.699L133.268 34.8172ZM133.071 30.2323V23.8742C132.653 23.4531 132.15 23.1256 131.596 22.9137C131.042 22.7018 130.449 22.6102 129.856 22.645C129.328 22.6241 128.802 22.7181 128.314 22.9206C127.827 23.1231 127.388 23.4292 127.031 23.8177C126.288 24.7419 125.922 25.9129 126.006 27.0957C125.944 28.2669 126.333 29.4175 127.094 30.31C127.45 30.7023 127.887 31.0118 128.375 31.2169C128.864 31.4219 129.391 31.5175 129.92 31.4969C130.505 31.5217 131.088 31.4217 131.631 31.2037C132.175 30.9857 132.665 30.6546 133.071 30.2323Z" fill="white"/>
<path d="M145.172 33.7011C144.273 32.8466 143.566 31.8108 143.097 30.6623C142.628 29.5139 142.408 28.279 142.452 27.0393C142.406 25.8031 142.624 24.5712 143.092 23.4259C143.559 22.2807 144.266 21.2486 145.165 20.3986C147.169 18.7547 149.68 17.8562 152.272 17.8562C154.864 17.8562 157.375 18.7547 159.379 20.3986C160.275 21.2501 160.98 22.2826 161.447 23.4276C161.913 24.5726 162.131 25.8038 162.085 27.0393C162.144 28.2828 161.934 29.5244 161.471 30.6799C161.008 31.8354 160.302 32.8778 159.4 33.7364C157.606 35.3942 155.232 36.2349 152.279 36.2585C149.665 36.3798 147.11 35.4602 145.172 33.7011V33.7011ZM152.279 22.6239C151.756 22.6032 151.235 22.699 150.754 22.9042C150.273 23.1095 149.843 23.4191 149.496 23.8108C148.758 24.7222 148.385 25.8755 148.45 27.0463C148.386 28.2258 148.758 29.3878 149.496 30.3101C149.853 30.6857 150.283 30.9847 150.76 31.1889C151.237 31.3932 151.75 31.4986 152.269 31.4986C152.787 31.4986 153.3 31.3932 153.777 31.1889C154.254 30.9847 154.684 30.6857 155.041 30.3101C155.779 29.3878 156.152 28.2258 156.087 27.0463C156.151 25.8744 155.776 24.7206 155.034 23.8108C154.69 23.4242 154.264 23.1181 153.788 22.9142C153.312 22.7103 152.797 22.6136 152.279 22.631V22.6239Z" fill="white"/>
<path d="M167.433 33.7011C166.533 32.8466 165.826 31.8108 165.357 30.6623C164.888 29.5139 164.669 28.279 164.713 27.0393C164.666 25.8031 164.884 24.5712 165.352 23.4259C165.82 22.2807 166.527 21.2486 167.425 20.3986C169.429 18.7547 171.941 17.8562 174.532 17.8562C177.124 17.8562 179.636 18.7547 181.639 20.3986C182.536 21.2501 183.241 22.2826 183.707 23.4276C184.174 24.5726 184.391 25.8038 184.345 27.0393C184.404 28.2828 184.195 29.5244 183.731 30.6799C183.268 31.8354 182.562 32.8778 181.66 33.7364C179.88 35.399 177.507 36.242 174.539 36.2655C171.924 36.3849 169.369 35.4627 167.433 33.7011V33.7011ZM174.539 22.631C174.017 22.6094 173.496 22.704 173.015 22.9081C172.534 23.1121 172.104 23.4204 171.756 23.8108C171.018 24.7222 170.646 25.8755 170.71 27.0463C170.646 28.2258 171.018 29.3878 171.756 30.3101C172.114 30.6857 172.544 30.9847 173.02 31.1889C173.497 31.3932 174.01 31.4986 174.529 31.4986C175.047 31.4986 175.561 31.3932 176.037 31.1889C176.514 30.9847 176.944 30.6857 177.302 30.3101C178.04 29.3878 178.412 28.2258 178.347 27.0463C178.412 25.8744 178.036 24.7206 177.295 23.8108C176.95 23.4242 176.524 23.1181 176.048 22.9142C175.572 22.7103 175.057 22.6136 174.539 22.631V22.631Z" fill="white"/>
<path d="M193.649 18.3852V21.536C194.237 20.6148 195.052 19.8605 196.016 19.346C197.225 18.6407 198.6 18.2678 200 18.2651V23.5282C198.53 23.5641 197.107 24.058 195.931 24.9411C194.782 25.7369 193.97 26.9298 193.649 28.2897V35.7428H187.785V18.3852H193.649Z" fill="white"/>
</svg>
