<svg width="200" height="44" viewBox="0 0 200 44" fill="none" xmlns="http://www.w3.org/2000/svg">
<path d="M44.4006 43.8942C48.4895 43.8942 51.8042 40.5794 51.8042 36.4905C51.8042 32.4016 48.4895 29.0869 44.4006 29.0869C40.3117 29.0869 36.9969 32.4016 36.9969 36.4905C36.9969 40.5794 40.3117 43.8942 44.4006 43.8942Z" fill="#458DFC"/>
<path d="M7.40362 43.8942C11.4925 43.8942 14.8072 40.5794 14.8072 36.4905C14.8072 32.4016 11.4925 29.0869 7.40362 29.0869C3.31471 29.0869 0 32.4016 0 36.4905C0 40.5794 3.31471 43.8942 7.40362 43.8942Z" fill="#458DFC"/>
<path d="M25.8986 14.9791C29.9875 14.9791 33.3022 11.6644 33.3022 7.5755C33.3022 3.48659 29.9875 0.171875 25.8986 0.171875C21.8097 0.171875 18.495 3.48659 18.495 7.5755C18.495 11.6644 21.8097 14.9791 25.8986 14.9791Z" fill="#458DFC"/>
<path d="M25.8986 29.0869C28.3761 29.0869 30.3845 27.0785 30.3845 24.601C30.3845 22.1234 28.3761 20.115 25.8986 20.115C23.421 20.115 21.4126 22.1234 21.4126 24.601C21.4126 27.0785 23.421 29.0869 25.8986 29.0869Z" fill="#458DFC"/>
<path d="M7.40356 37.2818L25.8985 24.608L44.4005 36.4905L25.8985 7.57544L7.40356 36.4905" stroke="#458DFC" stroke-width="2.35" stroke-miterlimit="10"/>
<path d="M74.8449 29.1931V34.8872C73.3373 35.4744 71.7292 35.76 70.1116 35.7278C67.8146 35.7703 65.5397 35.2718 63.471 34.2725C61.5598 33.3231 59.9684 31.8348 58.8932 29.9914C57.7499 27.9837 57.1736 25.703 57.2259 23.3932C57.1747 21.0834 57.7509 18.8031 58.8932 16.7949C59.9675 14.9664 61.5541 13.4928 63.4568 12.5562C65.5262 11.5594 67.801 11.0633 70.0975 11.108C71.7153 11.0723 73.3241 11.358 74.8307 11.9486V17.6426C73.379 17.0186 71.8118 16.708 70.2317 16.7313C69.3603 16.7278 68.4949 16.876 67.6744 17.1693C66.8875 17.4449 66.1573 17.8614 65.5197 18.3986C64.862 18.9801 64.3471 19.7053 64.0149 20.5179C63.6311 21.4246 63.441 22.4016 63.4568 23.3861C63.4285 24.6705 63.764 25.9367 64.4247 27.0385C65.0177 28.027 65.8803 28.8259 66.9114 29.3415C67.9488 29.8499 69.0906 30.1088 70.2458 30.0974C71.826 30.1301 73.3947 29.8217 74.8449 29.1931Z" fill="white"/>
<path d="M94.5973 35.2755H89.4614L89.087 33.5235C88.5373 34.1711 87.8557 34.6938 87.0877 35.0565C86.0565 35.5739 84.9136 35.8287 83.7603 35.7983C82.2296 35.8755 80.7231 35.3934 79.5216 34.4419C78.9969 33.9708 78.5849 33.3879 78.3159 32.7361C78.0469 32.0844 77.9278 31.3805 77.9674 30.6765C77.9377 29.8122 78.1444 28.9561 78.5652 28.2005C78.9859 27.4449 79.6048 26.8183 80.3552 26.3883C81.9471 25.3899 84.3467 24.8907 87.554 24.8907H88.7691V24.375C88.7691 22.8961 87.6175 22.1591 85.3145 22.1638C84.2999 22.1686 83.2879 22.2655 82.2909 22.4534C81.415 22.598 80.5542 22.8226 79.7194 23.1245V18.356C81.7354 17.69 83.8485 17.3653 85.9715 17.3952C88.8892 17.3952 91.065 18.031 92.4921 19.2885C93.2173 19.9733 93.7832 20.8093 94.1494 21.7371C94.5157 22.6649 94.6734 23.662 94.6114 24.6575L94.5973 35.2755ZM88.7337 28.211H87.554C85.0814 28.211 83.8451 28.8397 83.8451 30.0831C83.8355 30.3108 83.8776 30.5378 83.9681 30.747C84.0586 30.9562 84.1953 31.1422 84.3679 31.2911C84.7433 31.5982 85.2185 31.7565 85.7031 31.7362C86.4524 31.7579 87.1812 31.4897 87.7376 30.9874C88.2813 30.4983 88.6342 29.8326 88.7337 29.1082V28.211Z" fill="white"/>
<path d="M104.961 35.2755H99.0974V17.918H104.961V19.8113C105.173 19.5338 105.409 19.276 105.667 19.0412C106.009 18.7537 106.373 18.4939 106.755 18.2641C107.241 17.981 107.764 17.767 108.31 17.6283C108.932 17.4628 109.573 17.3796 110.217 17.3811C111.1 17.3459 111.98 17.4934 112.803 17.8143C113.626 18.1352 114.374 18.6227 115 19.2461C116.229 20.4824 116.836 22.2485 116.836 24.5445V35.2755H110.959V25.6678C111.002 24.8769 110.733 24.1007 110.21 23.506C109.956 23.245 109.65 23.0403 109.311 22.9052C108.973 22.7701 108.61 22.7077 108.246 22.7219C107.457 22.7288 106.7 23.0342 106.127 23.5767C105.488 24.1592 105.074 24.9463 104.954 25.802L104.961 35.2755Z" fill="white"/>
<path d="M133.268 34.3502C132.729 34.7591 132.134 35.0897 131.502 35.3321C130.693 35.6529 129.829 35.8113 128.959 35.7984C127.369 35.8222 125.799 35.4431 124.395 34.6963C123.038 33.9516 121.923 32.8337 121.181 31.4749C120.37 29.9852 119.961 28.3102 119.994 26.6145C119.949 25.3932 120.152 24.1753 120.591 23.0349C121.031 21.8946 121.698 20.8555 122.552 19.9809C123.385 19.133 124.384 18.4657 125.486 18.0209C126.589 17.576 127.771 17.3631 128.959 17.3953C130.415 17.3438 131.851 17.7435 133.071 18.5398V8.64941H138.934V35.2756H133.699L133.268 34.3502ZM133.071 29.7653V23.4072C132.653 22.986 132.15 22.6586 131.596 22.4467C131.042 22.2347 130.449 22.1431 129.856 22.178C129.328 22.157 128.802 22.251 128.314 22.4535C127.826 22.656 127.388 22.9621 127.03 23.3507C126.288 24.2749 125.922 25.4459 126.006 26.6286C125.944 27.7999 126.333 28.9505 127.094 29.843C127.45 30.2353 127.887 30.5448 128.375 30.7498C128.864 30.9549 129.391 31.0505 129.92 31.0298C130.505 31.0546 131.088 30.9547 131.631 30.7367C132.175 30.5187 132.665 30.1875 133.071 29.7653Z" fill="white"/>
<path d="M145.172 33.2341C144.273 32.3795 143.566 31.3438 143.097 30.1953C142.628 29.0469 142.408 27.8119 142.452 26.5722C142.406 25.336 142.624 24.1041 143.091 22.9589C143.559 21.8137 144.266 20.7816 145.165 19.9316C147.169 18.2876 149.68 17.3892 152.272 17.3892C154.864 17.3892 157.375 18.2876 159.379 19.9316C160.275 20.783 160.98 21.8156 161.447 22.9606C161.913 24.1055 162.131 25.3367 162.085 26.5722C162.143 27.8157 161.934 29.0574 161.471 30.2129C161.008 31.3684 160.302 32.4108 159.4 33.2694C157.606 34.9272 155.232 35.7679 152.279 35.7914C149.665 35.9127 147.11 34.9931 145.172 33.2341ZM152.279 22.1569C151.756 22.1362 151.235 22.2319 150.754 22.4372C150.272 22.6424 149.843 22.9521 149.496 23.3437C148.758 24.2552 148.385 25.4084 148.45 26.5793C148.385 27.7588 148.758 28.9207 149.496 29.8431C149.853 30.2186 150.283 30.5176 150.76 30.7219C151.237 30.9262 151.75 31.0315 152.268 31.0315C152.787 31.0315 153.3 30.9262 153.777 30.7219C154.254 30.5176 154.684 30.2186 155.041 29.8431C155.779 28.9207 156.151 27.7588 156.087 26.5793C156.151 25.4073 155.776 24.2535 155.034 23.3437C154.69 22.9571 154.264 22.651 153.788 22.4471C153.312 22.2433 152.797 22.1466 152.279 22.164V22.1569Z" fill="white"/>
<path d="M167.433 33.2341C166.533 32.3795 165.826 31.3438 165.357 30.1953C164.888 29.0469 164.669 27.8119 164.713 26.5722C164.666 25.336 164.884 24.1041 165.352 22.9589C165.82 21.8137 166.527 20.7816 167.425 19.9316C169.429 18.2876 171.941 17.3892 174.532 17.3892C177.124 17.3892 179.636 18.2876 181.639 19.9316C182.536 20.783 183.241 21.8156 183.707 22.9606C184.174 24.1055 184.391 25.3367 184.345 26.5722C184.404 27.8157 184.195 29.0574 183.731 30.2129C183.268 31.3684 182.562 32.4108 181.661 33.2694C179.88 34.9319 177.507 35.775 174.539 35.7985C171.924 35.9179 169.369 34.9957 167.433 33.2341ZM174.539 22.164C174.017 22.1424 173.497 22.237 173.015 22.441C172.534 22.645 172.104 22.9534 171.756 23.3437C171.018 24.2552 170.646 25.4084 170.71 26.5793C170.646 27.7588 171.018 28.9207 171.756 29.8431C172.114 30.2186 172.544 30.5176 173.02 30.7219C173.497 30.9262 174.01 31.0315 174.529 31.0315C175.047 31.0315 175.561 30.9262 176.037 30.7219C176.514 30.5176 176.944 30.2186 177.302 29.8431C178.04 28.9207 178.412 27.7588 178.347 26.5793C178.412 25.4073 178.036 24.2535 177.295 23.3437C176.95 22.9571 176.525 22.651 176.048 22.4471C175.572 22.2433 175.057 22.1466 174.539 22.164Z" fill="white"/>
<path d="M193.649 17.9182V21.069C194.237 20.1477 195.052 19.3935 196.016 18.879C197.225 18.1737 198.6 17.8008 200 17.7981V23.0612C198.53 23.097 197.107 23.591 195.931 24.4741C194.782 25.2698 193.97 26.4628 193.649 27.8227V35.2757H187.785V17.9182H193.649Z" fill="white"/>
</svg>
